<svg width="351" height="29" viewBox="0 0 351 29" fill="none" xmlns="http://www.w3.org/2000/svg">
    <path
        d="M15.3537 23.689V24.7964L15.2104 24.9267H14.4677C13.5948 24.9267 12.774 24.7703 12.0705 24.4837C11.406 24.7703 10.6113 24.9267 9.73837 24.9267H5.1002C2.9114 24.9267 1.9082 24.0668 1.9082 22.2167C1.9082 21.7477 1.98637 21.1223 2.12969 20.5751H3.14592C3.04169 21.1354 2.97655 21.6174 2.97655 22.0343C2.97655 23.1678 3.69312 23.689 5.23049 23.689H9.7514C10.0771 23.689 10.3898 23.676 10.6764 23.6369C10.0771 23.0897 9.72534 22.4122 9.72534 21.6695C9.72534 20.6794 10.4028 19.611 11.6796 18.699H12.6959C13.8945 19.6501 14.4547 20.6012 14.4547 21.5653C14.4547 22.3079 14.0899 23.0506 13.4515 23.6369C13.7381 23.676 14.0508 23.689 14.3765 23.689H15.3537ZM12.0965 23.2851C12.9434 22.9333 13.4255 22.3601 13.4255 21.6695C13.4255 21.0702 12.9695 20.4188 12.0053 19.7022C11.1976 20.3276 10.7416 20.979 10.7416 21.6305C10.7416 22.347 11.2367 22.9333 12.0965 23.2851ZM13.0607 16.5884L12.2008 17.4613L11.3279 16.5884L12.2008 15.7285L13.0607 16.5884Z"
        fill="#1D1D1B" />
    <path
        d="M18.5136 17.1621H19.2041V17.9568C19.2041 18.6213 18.8393 18.9991 18.24 18.9991C17.9012 18.9991 17.6667 18.8688 17.5234 18.6213C17.3801 18.8688 17.1325 18.9991 16.8198 18.9991C16.2726 18.9991 15.96 18.6213 15.96 17.9568V17.1621H16.6505V17.9568C16.6505 18.1653 16.7547 18.2956 16.9501 18.2956C17.1325 18.2956 17.2368 18.1653 17.2368 17.9568V17.1621H17.9273V17.9568C17.9273 18.1653 18.0315 18.2956 18.2269 18.2956C18.4093 18.2956 18.5136 18.1653 18.5136 17.9568V17.1621Z"
        fill="#1D1D1B" />
    <path
        d="M183.402 2.57617H184.158V3.41C184.158 4.08748 183.78 4.47833 183.142 4.47833C182.829 4.47833 182.594 4.36109 182.438 4.12657C182.282 4.36109 182.047 4.47833 181.735 4.47833C181.174 4.47833 180.849 4.08748 180.849 3.41V2.57617H181.604V3.41C181.604 3.5924 181.695 3.69663 181.865 3.69663C182.034 3.69663 182.125 3.5924 182.125 3.41V2.57617H182.881V3.41C182.881 3.5924 182.972 3.69663 183.142 3.69663C183.311 3.69663 183.402 3.5924 183.402 3.41V2.57617Z"
        fill="#1D1D1B" />
    <path
        d="M178.535 15.8779H180.03L183.847 25.3897H182.477L181.393 22.5653H177.126L176.041 25.3897H174.738L178.542 15.8779H178.535ZM180.996 21.5268L179.527 17.7234C179.435 17.4786 179.349 17.2339 179.256 17.0024C179.177 17.2339 179.077 17.4786 178.985 17.7234L177.516 21.5268H180.996Z"
        fill="#1D1D1B" />
    <path
        d="M184.647 18.8413H185.805V19.7211C186.156 19.1522 186.949 18.623 187.829 18.623C189.337 18.623 190.25 19.5756 190.25 21.2557V25.3832H189.079V21.4012C189.079 20.1643 188.669 19.5425 187.637 19.5425C186.493 19.5425 185.818 20.409 185.818 21.4475V25.3898H184.647V18.8413Z"
        fill="#1D1D1B" />
    <path
        d="M197.366 15.8779H198.861L202.678 25.3897H201.308L200.224 22.5653H195.957L194.872 25.3897H193.569L197.373 15.8779H197.366ZM199.827 21.5268L198.358 17.7234C198.266 17.4786 198.18 17.2339 198.087 17.0024C198.008 17.2339 197.908 17.4786 197.816 17.7234L196.347 21.5268H199.827Z"
        fill="#1D1D1B" />
    <path
        d="M203.479 18.8413H204.649V19.9261C204.973 19.1787 205.694 18.623 206.7 18.623C206.779 18.623 206.892 18.6231 206.997 18.6363V19.7938C206.905 19.7806 206.792 19.7674 206.634 19.7674C205.37 19.7674 204.649 20.4751 204.649 21.9303V25.3964H203.479V18.848V18.8413Z"
        fill="#1D1D1B" />
    <path
        d="M207.355 22.0955C207.355 20.0317 208.797 18.6162 210.656 18.6162C212.204 18.6162 213.375 19.5555 213.507 21.0372H212.296C212.191 20.1839 211.602 19.5423 210.623 19.5423C209.373 19.5423 208.559 20.6403 208.559 22.0955C208.559 23.6565 209.386 24.6752 210.649 24.6752C211.615 24.6752 212.263 24.1196 212.389 23.1803H213.547C213.427 24.609 212.389 25.5814 210.596 25.5814C208.804 25.5814 207.349 24.4106 207.349 22.0889L207.355 22.0955Z"
        fill="#1D1D1B" />
    <path
        d="M214.783 15.8779H215.954V19.721C216.305 19.0992 217.078 18.623 217.965 18.623C219.473 18.623 220.386 19.5755 220.386 21.2556V25.3831H219.215V21.4011C219.215 20.1642 218.792 19.5424 217.733 19.5424C216.622 19.5424 215.954 20.4089 215.954 21.4474V25.3897H214.783V15.8779Z"
        fill="#1D1D1B" />
    <path d="M221.94 16.2031H223.296V17.6054H221.94V16.2031ZM222.046 18.8357H223.217V25.3842H222.046V18.8357Z"
        fill="#1D1D1B" />
    <path
        d="M225.42 23.5643V19.8006H224.196V18.8348H225.42V16.6719H226.591V18.8348H227.947V19.8006H226.591V23.4386C226.591 24.1993 226.974 24.444 227.556 24.444C227.722 24.444 227.854 24.4308 228.046 24.4043V25.4097C227.801 25.4626 227.557 25.4891 227.285 25.4891C226.306 25.4891 225.427 25.0129 225.427 23.5576L225.42 23.5643Z"
        fill="#1D1D1B" />
    <path
        d="M228.68 22.0823C228.68 20.0715 229.997 18.6162 231.789 18.6162C233.747 18.6162 234.819 19.9921 234.819 22.0955V22.327H229.845C229.871 23.8219 230.744 24.6752 231.869 24.6752C232.669 24.6752 233.43 24.3643 233.595 23.3589H234.753C234.614 24.5165 233.721 25.588 231.855 25.588C229.898 25.588 228.674 24.3511 228.674 22.0823H228.68ZM233.569 21.5002C233.569 20.3294 232.927 19.5423 231.789 19.5423C230.652 19.5423 229.97 20.3956 229.884 21.5002H233.569Z"
        fill="#1D1D1B" />
    <path
        d="M235.745 22.0955C235.745 20.0317 237.187 18.6162 239.046 18.6162C240.593 18.6162 241.764 19.5555 241.896 21.0372H240.686C240.58 20.1839 239.991 19.5423 239.012 19.5423C237.762 19.5423 236.949 20.6403 236.949 22.0955C236.949 23.6565 237.776 24.6752 239.039 24.6752C240.005 24.6752 240.653 24.1196 240.779 23.1803H241.936C241.817 24.609 240.779 25.5814 238.986 25.5814C237.193 25.5814 235.738 24.4106 235.738 22.0889L235.745 22.0955Z"
        fill="#1D1D1B" />
    <path
        d="M243.636 23.5643V19.8006H242.412V18.8348H243.636V16.6719H244.807V18.8348H246.163V19.8006H244.807V23.4386C244.807 24.1993 245.19 24.444 245.772 24.444C245.938 24.444 246.07 24.4308 246.262 24.4043V25.4097C246.017 25.4626 245.772 25.4891 245.501 25.4891C244.522 25.4891 243.642 25.0129 243.642 23.5576L243.636 23.5643Z"
        fill="#1D1D1B" />
    <path
        d="M247.32 23.0088V18.835H248.491V22.764C248.491 24.0142 248.914 24.6823 249.986 24.6823C251.058 24.6823 251.659 23.8687 251.659 22.4532V18.8416H252.817V25.39H251.673V24.4772C251.362 25.185 250.561 25.5885 249.688 25.5885C248.154 25.5885 247.327 24.6624 247.327 23.0088H247.32Z"
        fill="#1D1D1B" />
    <path
        d="M254.563 18.8413H255.734V19.9261C256.058 19.1787 256.779 18.623 257.785 18.623C257.864 18.623 257.977 18.6231 258.082 18.6363V19.7938C257.99 19.7806 257.877 19.7674 257.719 19.7674C256.455 19.7674 255.734 20.4751 255.734 21.9303V25.3964H254.563V18.848V18.8413Z"
        fill="#1D1D1B" />
    <path
        d="M258.433 22.0823C258.433 20.0715 259.75 18.6162 261.542 18.6162C263.5 18.6162 264.572 19.9921 264.572 22.0955V22.327H259.598C259.624 23.8219 260.497 24.6752 261.622 24.6752C262.422 24.6752 263.183 24.3643 263.348 23.3589H264.506C264.367 24.5165 263.474 25.588 261.608 25.588C259.65 25.588 258.427 24.3511 258.427 22.0823H258.433ZM263.322 21.5002C263.322 20.3294 262.68 19.5423 261.542 19.5423C260.405 19.5423 259.723 20.3956 259.637 21.5002H263.322Z"
        fill="#1D1D1B" />
    <path
        d="M268.447 22.0955C268.447 20.0582 269.777 18.6162 271.669 18.6162C273.56 18.6162 274.89 20.0582 274.89 22.0955C274.89 24.1328 273.547 25.588 271.669 25.588C269.79 25.588 268.447 24.1857 268.447 22.0955ZM271.669 24.6752C272.919 24.6752 273.679 23.6301 273.679 22.0955C273.679 20.5609 272.892 19.5423 271.669 19.5423C270.445 19.5423 269.658 20.5609 269.658 22.0955C269.658 23.6301 270.418 24.6752 271.669 24.6752Z"
        fill="#1D1D1B" />
    <path
        d="M276.596 19.8007H275.359V18.8349H276.596V17.6245C276.596 16.3478 277.463 15.6533 278.468 15.6533C278.753 15.6533 279.011 15.7195 279.136 15.7724V16.7646C279.011 16.7513 278.865 16.7249 278.713 16.7249C278.104 16.7249 277.76 17.0755 277.76 17.7039V18.8349H279.116V19.8007H277.76V25.3834H276.59V19.8007H276.596Z"
        fill="#1D1D1B" />
    <path
        d="M285.348 15.8779H286.842L290.659 25.3897H289.29L288.205 22.5653H283.939L282.854 25.3897H281.551L285.354 15.8779H285.348ZM287.808 21.5268L286.34 17.7234C286.247 17.4786 286.161 17.2339 286.069 17.0024C285.989 17.2339 285.89 17.4786 285.797 17.7234L284.329 21.5268H287.808Z"
        fill="#1D1D1B" />
    <path
        d="M291.035 22.1096C291.035 20.1252 292.219 18.6171 294.078 18.6171C295.163 18.6171 295.884 19.2124 296.181 19.7151V15.8721H297.352V25.3839H296.181V24.471C295.831 25.0796 295.024 25.5823 294.051 25.5823C292.338 25.5823 291.035 24.3321 291.035 22.103V22.1096ZM294.256 24.6761C295.427 24.6761 296.267 23.6707 296.267 22.0964C296.267 20.5221 295.44 19.5432 294.256 19.5432C293.072 19.5432 292.246 20.575 292.246 22.1096C292.246 23.6442 293.059 24.6761 294.256 24.6761Z"
        fill="#1D1D1B" />
    <path
        d="M298.716 23.5904C298.716 22.327 299.721 21.7317 300.892 21.5531L302.294 21.3348C302.797 21.2555 302.962 21.0769 302.962 20.68C302.962 19.959 302.407 19.5423 301.646 19.5423C300.641 19.5423 300.125 20.0715 300.098 20.8851H298.927C298.967 19.6878 299.906 18.6162 301.547 18.6162C303.187 18.6162 304.1 19.582 304.1 21.0901V25.383H302.989V24.5032C302.665 25.1845 301.957 25.588 300.978 25.588C299.728 25.588 298.722 24.8273 298.722 23.5904H298.716ZM301.137 24.6752C302.182 24.6752 302.956 23.9675 302.956 22.9091V21.9434C302.876 22.0624 302.632 22.1616 302.235 22.2278L301.282 22.4064C300.508 22.5585 299.926 22.8959 299.926 23.5904C299.926 24.2849 300.469 24.6752 301.137 24.6752Z"
        fill="#1D1D1B" />
    <path
        d="M305.768 18.8416H306.938V19.7411C307.302 19.159 308.122 18.6299 309.101 18.6299C310.986 18.6299 312.118 20.1116 312.118 22.1092C312.118 24.1068 310.881 25.6017 309.075 25.6017C308.136 25.6017 307.362 25.1519 306.945 24.4904V28.2277H305.774V18.8548L305.768 18.8416ZM308.89 24.6823C310.1 24.6823 310.887 23.6239 310.887 22.1025C310.887 20.5812 310.1 19.5493 308.89 19.5493C307.679 19.5493 306.866 20.5415 306.866 22.1025C306.866 23.6636 307.692 24.6823 308.89 24.6823Z"
        fill="#1D1D1B" />
    <path
        d="M313.824 23.5643V19.8006H312.601V18.8348H313.824V16.6719H314.995V18.8348H316.351V19.8006H314.995V23.4386C314.995 24.1993 315.379 24.444 315.961 24.444C316.126 24.444 316.258 24.4308 316.45 24.4043V25.4097C316.206 25.4626 315.961 25.4891 315.69 25.4891C314.711 25.4891 313.831 25.0129 313.831 23.5576L313.824 23.5643Z"
        fill="#1D1D1B" />
    <path
        d="M317.19 23.5904C317.19 22.327 318.196 21.7317 319.367 21.5531L320.769 21.3348C321.272 21.2555 321.437 21.0769 321.437 20.68C321.437 19.959 320.881 19.5423 320.121 19.5423C319.115 19.5423 318.599 20.0715 318.573 20.8851H317.402C317.442 19.6878 318.381 18.6162 320.021 18.6162C321.662 18.6162 322.575 19.582 322.575 21.0901V25.383H321.463V24.5032C321.139 25.1845 320.432 25.588 319.453 25.588C318.202 25.588 317.197 24.8273 317.197 23.5904H317.19ZM319.611 24.6752C320.656 24.6752 321.43 23.9675 321.43 22.9091V21.9434C321.351 22.0624 321.106 22.1616 320.709 22.2278L319.757 22.4064C318.983 22.5585 318.401 22.8959 318.401 23.5904C318.401 24.2849 318.943 24.6752 319.611 24.6752Z"
        fill="#1D1D1B" />
    <path
        d="M325.405 24.4769V25.3897H324.234V15.8779H325.405V19.721C325.829 19.1389 326.576 18.623 327.568 18.623C329.473 18.623 330.584 20.1179 330.584 22.1155C330.584 24.1131 329.387 25.5948 327.542 25.5948C326.629 25.5948 325.815 25.145 325.412 24.4835L325.405 24.4769ZM327.35 24.682C328.56 24.682 329.361 23.6368 329.361 22.1155C329.361 20.5941 328.574 19.549 327.35 19.549C326.126 19.549 325.339 20.5147 325.339 22.1022C325.339 23.6897 326.166 24.682 327.35 24.682Z"
        fill="#1D1D1B" />
    <path d="M331.782 16.2031H333.138V17.6054H331.782V16.2031ZM331.888 18.8357H333.059V25.3842H331.888V18.8357Z"
        fill="#1D1D1B" />
    <path d="M334.799 15.8779H335.97V25.3897H334.799V15.8779Z" fill="#1D1D1B" />
    <path d="M337.597 16.2031H338.953V17.6054H337.597V16.2031ZM337.703 18.8357H338.873V25.3842H337.703V18.8357Z"
        fill="#1D1D1B" />
    <path
        d="M341.075 23.5643V19.8006H339.852V18.8348H341.075V16.6719H342.246V18.8348H343.602V19.8006H342.246V23.4386C342.246 24.1993 342.63 24.444 343.212 24.444C343.377 24.444 343.509 24.4308 343.701 24.4043V25.4097C343.457 25.4626 343.212 25.4891 342.941 25.4891C341.962 25.4891 341.082 25.0129 341.082 23.5576L341.075 23.5643Z"
        fill="#1D1D1B" />
    <path
        d="M346.777 25.1587L344.157 18.8418H345.447L347.074 23.0288L347.385 23.8292C347.478 23.558 347.577 23.2868 347.67 23.0288L349.112 18.8418H350.335L346.816 28.2147H345.579L346.777 25.1587Z"
        fill="#1D1D1B" />
    <path d="M3.47459 3.15754H0.292969V1.64941H8.41569V3.15754H5.2473V11.1612H3.46797V3.15754H3.47459Z"
        fill="#1D1D1B" />
    <path
        d="M9.2488 1.64941H10.9091V4.83103C10.9091 5.02286 10.8958 5.2279 10.8561 5.48587C11.22 4.8178 11.8483 4.31509 12.8934 4.31509C14.3619 4.31509 15.2284 5.34697 15.2284 6.98077V11.1678H13.5681V7.22551C13.5681 6.24655 13.0919 5.63801 12.318 5.63801C11.5044 5.63801 10.9025 6.359 10.9025 7.28504V11.1678H9.24219V1.65601L9.2488 1.64941Z"
        fill="#1D1D1B" />
    <path
        d="M16.3525 7.8344C16.3525 5.74419 17.7548 4.31543 19.6797 4.31543C21.7037 4.31543 22.8745 5.73095 22.8745 7.88731V8.2511H18.0525C18.0657 9.29621 18.7338 10.0966 19.7392 10.0966C20.4602 10.0966 21.0423 9.68647 21.1547 8.99855H22.8415C22.7025 10.3545 21.5384 11.4063 19.7458 11.4063C17.7614 11.4063 16.3658 10.1297 16.3658 7.8344H16.3525ZM21.1746 7.06048C21.1481 6.1609 20.566 5.55236 19.6665 5.55236C18.7669 5.55236 18.1319 6.19397 18.0393 7.06048H21.1746Z"
        fill="#1D1D1B" />
    <path
        d="M26.877 1.64941H30.8986C32.7309 1.64941 34.1464 2.33071 34.1464 4.05712C34.1464 5.24113 33.2799 5.87614 32.3009 6.13411C33.5511 6.39208 34.4308 7.16599 34.4308 8.42937C34.4308 10.4534 32.625 11.1612 30.7068 11.1612H26.877V1.64941ZM30.6803 5.47925C31.8247 5.47925 32.3075 5.02947 32.3075 4.26879C32.3075 3.56103 31.8181 3.15754 30.6803 3.15754H28.6298V5.47925H30.6803ZM30.773 9.65308C32.0099 9.65308 32.592 9.17681 32.592 8.29707C32.592 7.34457 32.0099 6.95431 30.773 6.95431H28.6232V9.65968H30.773V9.65308Z"
        fill="#1D1D1B" />
    <path
        d="M35.2773 7.8344C35.2773 5.74419 36.6796 4.31543 38.6045 4.31543C40.6286 4.31543 41.7993 5.73095 41.7993 7.88731V8.2511H36.9773C36.9905 9.29621 37.6586 10.0966 38.664 10.0966C39.385 10.0966 39.9671 9.68647 40.0795 8.99855H41.7663C41.6274 10.3545 40.4632 11.4063 38.6706 11.4063C36.6863 11.4063 35.2906 10.1297 35.2906 7.8344H35.2773ZM40.0994 7.06048C40.0729 6.1609 39.4908 5.55236 38.5913 5.55236C37.6917 5.55236 37.0567 6.19397 36.9641 7.06048H40.0994Z"
        fill="#1D1D1B" />
    <path
        d="M42.666 9.34276C42.666 7.84786 43.8236 7.33191 45.2457 7.14009L46.1982 7.01441C46.7406 6.94826 46.9324 6.74322 46.9324 6.4191C46.9324 5.95608 46.5488 5.55259 45.8476 5.55259C45.0737 5.55259 44.5843 5.98915 44.5181 6.68368H42.8049C42.9108 5.30123 44.0419 4.32227 45.755 4.32227C47.7791 4.32227 48.5927 5.40707 48.5927 7.27239V11.1684H47.0581V10.8972C47.0581 10.6789 47.0846 10.4738 47.1243 10.2622C46.7737 10.917 46.0924 11.4197 44.9481 11.4197C43.8037 11.4197 42.666 10.6591 42.666 9.35598V9.34276ZM45.3978 10.1828C46.2776 10.1828 46.9853 9.52797 46.9853 8.59531V7.87432C46.8332 8.01323 46.6017 8.07937 46.1982 8.15874L45.6558 8.26458C44.8819 8.41671 44.3527 8.67468 44.3527 9.26999C44.3527 9.8653 44.8158 10.1828 45.3978 10.1828Z"
        fill="#1D1D1B" />
    <path
        d="M50.002 8.73986V4.52637H51.6754V8.48188C51.6754 9.40792 52.0856 10.0694 52.8859 10.0694C53.726 10.0694 54.3279 9.44762 54.3279 8.46866V4.52637H55.9882V11.1542H54.3477V10.883C54.3477 10.6779 54.3742 10.4464 54.4139 10.248C54.0765 10.883 53.4878 11.4055 52.3898 11.4055C51.0603 11.4055 50.0152 10.4927 50.0152 8.73986H50.002Z"
        fill="#1D1D1B" />
    <path
        d="M58.3157 9.09722V5.84947H56.8076V4.53315H58.3157V2.13867H59.976V4.53315H61.6032V5.84947H59.976V8.85248C59.976 9.54701 60.2472 9.95051 60.955 9.95051C61.1203 9.95051 61.2923 9.93728 61.4577 9.91082V11.161C61.2923 11.2139 60.902 11.28 60.4787 11.28C59.0632 11.28 58.3157 10.5723 58.3157 9.09062V9.09722Z"
        fill="#1D1D1B" />
    <path
        d="M64.5402 11.1091L61.9473 4.53418H63.806L65.2215 8.81382C65.3009 9.04533 65.3736 9.29008 65.4398 9.60096C65.4927 9.29008 65.5787 9.04533 65.6448 8.81382L66.9876 4.53418H68.7272L65.2347 13.9335H63.4686L64.5402 11.1091Z"
        fill="#1D1D1B" />
    <path
        d="M71.4922 7.87408C71.4922 5.69788 72.9077 4.31543 74.8855 4.31543C76.8632 4.31543 78.292 5.69788 78.292 7.87408C78.292 10.0503 76.8765 11.4063 74.8855 11.4063C72.8945 11.4063 71.4922 10.0767 71.4922 7.87408ZM74.8855 10.1032C75.9173 10.1032 76.6119 9.28961 76.6119 7.87408C76.6119 6.45856 75.9041 5.63173 74.8855 5.63173C73.8668 5.63173 73.1723 6.4321 73.1723 7.87408C73.1723 9.31607 73.8536 10.1032 74.8855 10.1032Z"
        fill="#1D1D1B" />
    <path
        d="M80.039 5.84954H78.7227V4.53322H80.039V3.77255C80.039 2.19827 80.8922 1.41113 82.1689 1.41113C82.5922 1.41113 82.8899 1.47729 83.0486 1.53021V2.83327C82.9428 2.79358 82.7774 2.76714 82.5856 2.76714C82.0829 2.76714 81.686 3.05156 81.686 3.63365V4.53322H83.0684V5.84954H81.686V11.1611H80.0257V5.84954H80.039Z"
        fill="#1D1D1B" />
    <path d="M86.5605 1.64941H88.3399V11.1612H86.5605V1.64941Z" fill="#1D1D1B" />
    <path
        d="M90.1064 4.5337H91.7667V4.83137C91.7667 5.03642 91.7535 5.26792 91.7138 5.48621C92.0379 4.90412 92.6531 4.31543 93.632 4.31543C94.4588 4.31543 95.1269 4.95704 95.3717 5.55236C95.7553 4.91735 96.5557 4.31543 97.5214 4.31543C98.8642 4.31543 99.8034 5.37376 99.8034 6.99433V11.1681H98.1432V7.23907C98.1432 6.27334 97.7595 5.63835 97.0452 5.63835C96.3308 5.63835 95.7818 6.30642 95.7818 7.31184V11.1681H94.1215V7.23907C94.1215 6.27334 93.7709 5.63835 93.0235 5.63835C92.276 5.63835 91.7733 6.27996 91.7733 7.31184V11.1681H90.1131V4.54032L90.1064 4.5337Z"
        fill="#1D1D1B" />
    <path
        d="M101.284 4.5337H102.944V4.83137C102.944 5.03642 102.931 5.21501 102.892 5.48621C103.315 4.77844 104.016 4.31543 105.068 4.31543C106.821 4.31543 107.978 5.78387 107.978 7.88731C107.978 9.99075 106.688 11.4063 105.002 11.4063C103.89 11.4063 103.315 10.93 102.898 10.2487C102.938 10.5199 102.951 10.6985 102.951 10.8837V13.9264H101.291V4.5271L101.284 4.5337ZM104.585 10.1032C105.604 10.1032 106.285 9.19038 106.285 7.86084C106.285 6.53131 105.643 5.63173 104.585 5.63173C103.593 5.63173 102.872 6.48501 102.872 7.86084C102.872 9.23668 103.579 10.1032 104.585 10.1032Z"
        fill="#1D1D1B" />
    <path
        d="M108.76 7.8344C108.76 5.74419 110.162 4.31543 112.087 4.31543C114.111 4.31543 115.282 5.73095 115.282 7.88731V8.2511H110.46C110.473 9.29621 111.141 10.0966 112.146 10.0966C112.867 10.0966 113.45 9.68647 113.562 8.99855H115.249C115.11 10.3545 113.946 11.4063 112.153 11.4063C110.169 11.4063 108.773 10.1297 108.773 7.8344H108.76ZM113.582 7.06048C113.555 6.1609 112.973 5.55236 112.074 5.55236C111.174 5.55236 110.539 6.19397 110.446 7.06048H113.582Z"
        fill="#1D1D1B" />
    <path
        d="M116.491 4.5337H118.151V5.03642C118.151 5.28116 118.138 5.4862 118.099 5.73094C118.449 4.98349 119.051 4.31543 120.043 4.31543C120.182 4.31543 120.288 4.32866 120.394 4.35512V5.95584C120.288 5.92938 120.136 5.90293 119.918 5.90293C118.899 5.90293 118.151 6.41887 118.151 7.87408V11.1615H116.491V4.5337Z"
        fill="#1D1D1B" />
    <path
        d="M121.274 4.5337H122.935V4.83137C122.935 5.03642 122.921 5.26792 122.882 5.48621C123.206 4.90412 123.821 4.31543 124.8 4.31543C125.627 4.31543 126.295 4.95704 126.54 5.55236C126.923 4.91735 127.724 4.31543 128.689 4.31543C130.032 4.31543 130.971 5.37376 130.971 6.99433V11.1681H129.311V7.23907C129.311 6.27334 128.928 5.63835 128.213 5.63835C127.499 5.63835 126.95 6.30642 126.95 7.31184V11.1681H125.289V7.23907C125.289 6.27334 124.939 5.63835 124.191 5.63835C123.444 5.63835 122.941 6.27996 122.941 7.31184V11.1681H121.281V4.54032L121.274 4.5337Z"
        fill="#1D1D1B" />
    <path
        d="M132.115 9.34276C132.115 7.84786 133.273 7.33191 134.695 7.14009L135.647 7.01441C136.19 6.94826 136.382 6.74322 136.382 6.4191C136.382 5.95608 135.998 5.55259 135.297 5.55259C134.523 5.55259 134.033 5.98915 133.967 6.68368H132.254C132.36 5.30123 133.491 4.32227 135.204 4.32227C137.228 4.32227 138.042 5.40707 138.042 7.27239V11.1684H136.507V10.8972C136.507 10.6789 136.534 10.4738 136.573 10.2622C136.223 10.917 135.542 11.4197 134.397 11.4197C133.253 11.4197 132.115 10.6591 132.115 9.35598V9.34276ZM134.847 10.1828C135.727 10.1828 136.435 9.52797 136.435 8.59531V7.87432C136.282 8.01323 136.051 8.07937 135.647 8.15874L135.105 8.26458C134.331 8.41671 133.802 8.67468 133.802 9.26999C133.802 9.8653 134.265 10.1828 134.847 10.1828Z"
        fill="#1D1D1B" />
    <path
        d="M139.516 4.5337H141.177V4.83137C141.177 5.02319 141.163 5.22824 141.124 5.48621C141.488 4.81813 142.116 4.31543 143.161 4.31543C144.629 4.31543 145.496 5.34731 145.496 6.98111V11.1681H143.836V7.22585C143.836 6.24689 143.359 5.63835 142.586 5.63835C141.772 5.63835 141.17 6.35933 141.17 7.28538V11.1681H139.51V4.54032L139.516 4.5337Z"
        fill="#1D1D1B" />
    <path
        d="M146.62 7.8344C146.62 5.74419 148.022 4.31543 149.947 4.31543C151.971 4.31543 153.142 5.73095 153.142 7.88731V8.2511H148.32C148.333 9.29621 149.001 10.0966 150.007 10.0966C150.728 10.0966 151.31 9.68647 151.422 8.99855H153.109C152.97 10.3545 151.806 11.4063 150.013 11.4063C148.029 11.4063 146.633 10.1297 146.633 7.8344H146.62ZM151.442 7.06048C151.416 6.1609 150.834 5.55236 149.934 5.55236C149.034 5.55236 148.399 6.19397 148.307 7.06048H151.442Z"
        fill="#1D1D1B" />
    <path
        d="M154.353 4.5337H156.014V4.83137C156.014 5.02319 156 5.22824 155.961 5.48621C156.324 4.81813 156.953 4.31543 157.998 4.31543C159.466 4.31543 160.333 5.34731 160.333 6.98111V11.1681H158.673V7.22585C158.673 6.24689 158.196 5.63835 157.422 5.63835C156.609 5.63835 156.007 6.35933 156.007 7.28538V11.1681H154.347V4.54032L154.353 4.5337Z"
        fill="#1D1D1B" />
    <path
        d="M161.458 7.84762C161.458 5.63173 162.966 4.31543 164.898 4.31543C166.829 4.31543 167.874 5.4862 168.033 7.03402H166.346C166.293 6.28657 165.83 5.63173 164.891 5.63173C163.952 5.63173 163.138 6.41886 163.138 7.86084C163.138 9.17715 163.833 10.1032 164.851 10.1032C165.87 10.1032 166.333 9.4219 166.412 8.63476H168.099C167.868 10.3215 166.783 11.4063 164.812 11.4063C162.708 11.4063 161.458 10.0503 161.458 7.84762Z"
        fill="#1D1D1B" />
    <path
        d="M168.808 7.8344C168.808 5.74419 170.21 4.31543 172.135 4.31543C174.159 4.31543 175.33 5.73095 175.33 7.88731V8.2511H170.508C170.521 9.29621 171.189 10.0966 172.194 10.0966C172.915 10.0966 173.497 9.68647 173.61 8.99855H175.297C175.158 10.3545 173.993 11.4063 172.201 11.4063C170.217 11.4063 168.821 10.1297 168.821 7.8344H168.808ZM173.63 7.06048C173.603 6.1609 173.021 5.55236 172.122 5.55236C171.222 5.55236 170.587 6.19397 170.494 7.06048H173.63Z"
        fill="#1D1D1B" />
    <path
        d="M20.0909 24.0407V25.099L19.8925 25.2975C18.7415 25.2975 17.9742 24.8212 17.6303 23.9084C17.2863 24.8212 16.5322 25.2975 15.3945 25.2975V24.2391L15.593 24.0407H15.7253C16.7704 24.0407 17.326 23.5247 17.326 22.5458V20.8789H18.3579V22.5458C18.3579 23.5247 18.9135 24.0407 19.9586 24.0407H20.0909ZM17.8419 27.1892L18.5298 26.5013L19.403 27.3744L18.5298 28.2608L17.8419 27.5729L17.154 28.2608L16.2677 27.3744L17.154 26.5013L17.8419 27.1892Z"
        fill="#1D1D1B" />
    <path
        d="M23.4978 22.1362C24.3973 23.5517 24.9927 24.0412 25.8393 24.0412V25.0996L25.6409 25.298C24.6355 25.298 23.9475 24.8879 23.167 23.7767C22.9818 24.8482 22.2278 25.298 21.1826 25.298H19.8994V24.2396L20.0979 24.0412H21.3679C22.1087 24.0412 22.5585 23.737 22.5585 23.1946C22.5585 22.8903 22.413 22.5992 22.1219 22.1495L20.5609 19.6888V18.4321L25.7203 15.9053V17.1753L21.606 19.1993L23.4978 22.1362Z"
        fill="#1D1D1B" />
    <path
        d="M30.337 24.0413V25.0996L30.1385 25.2981C28.9876 25.2981 28.2203 24.8218 27.8764 23.909C27.5324 24.8218 26.7783 25.2981 25.6406 25.2981V24.2397L25.8391 24.0413H25.9714C27.0165 24.0413 27.5721 23.5253 27.5721 22.5464V20.8795H28.604V22.5464C28.604 23.5253 29.1596 24.0413 30.2047 24.0413H30.337ZM28.088 18.9348L27.4001 19.6227L26.5138 18.7364L27.4001 17.8633L28.088 18.5512L28.7759 17.8633L29.6491 18.7364L28.7759 19.6227L28.088 18.9348Z"
        fill="#1D1D1B" />
    <path d="M30.1387 25.2968V24.2385L30.3371 24.04H31.7526V25.0984L31.5542 25.2968H30.1387Z" fill="#1D1D1B" />
    <path d="M31.5537 25.2968V24.2385L31.7522 24.04H33.1677V25.0984L32.9692 25.2968H31.5537Z" fill="#1D1D1B" />
    <path d="M32.9697 25.2968V24.2385L33.1682 24.04H34.5837V25.0984L34.3852 25.2968H32.9697Z" fill="#1D1D1B" />
    <path d="M34.3916 25.2968V24.2385L34.59 24.04H36.0056V25.0984L35.8071 25.2968H34.3916Z" fill="#1D1D1B" />
    <path d="M35.8076 25.2968V24.2385L36.0061 24.04H37.4216V25.0984L37.2231 25.2968H35.8076Z" fill="#1D1D1B" />
    <path d="M37.2227 25.2968V24.2385L37.4211 24.04H38.8366V25.0984L38.6382 25.2968H37.2227Z" fill="#1D1D1B" />
    <path d="M38.6387 25.2968V24.2385L38.8371 24.04H40.2526V25.0984L40.0542 25.2968H38.6387Z" fill="#1D1D1B" />
    <path d="M40.0537 25.2968V24.2385L40.2521 24.04H41.6677V25.0984L41.4692 25.2968H40.0537Z" fill="#1D1D1B" />
    <path d="M41.4688 25.2968V24.2385L41.6672 24.04H43.0827V25.0984L42.8843 25.2968H41.4688Z" fill="#1D1D1B" />
    <path d="M42.8848 25.2968V24.2385L43.0832 24.04H44.4987V25.0984L44.3003 25.2968H42.8848Z" fill="#1D1D1B" />
    <path d="M44.3008 25.2968V24.2385L44.4992 24.04H45.9147V25.0984L45.7163 25.2968H44.3008Z" fill="#1D1D1B" />
    <path d="M45.7158 25.2968V24.2385L45.9143 24.04H47.3298V25.0984L47.1313 25.2968H45.7158Z" fill="#1D1D1B" />
    <path d="M47.1318 25.2968V24.2385L47.3303 24.04H48.7458V25.0984L48.5474 25.2968H47.1318Z" fill="#1D1D1B" />
    <path d="M48.5537 25.2968V24.2385L48.7522 24.04H50.1677V25.0984L49.9692 25.2968H48.5537Z" fill="#1D1D1B" />
    <path d="M49.9688 25.2968V24.2385L50.1672 24.04H51.5827V25.0984L51.3843 25.2968H49.9688Z" fill="#1D1D1B" />
    <path d="M51.3848 25.2968V24.2385L51.5832 24.04H52.9987V25.0984L52.8003 25.2968H51.3848Z" fill="#1D1D1B" />
    <path d="M52.7998 25.2968V24.2385L52.9982 24.04H54.4138V25.0984L54.2153 25.2968H52.7998Z" fill="#1D1D1B" />
    <path d="M54.2158 25.2968V24.2385L54.4143 24.04H55.8298V25.0984L55.6313 25.2968H54.2158Z" fill="#1D1D1B" />
    <path d="M55.6318 25.2968V24.2385L55.8303 24.04H57.2458V25.0984L57.0474 25.2968H55.6318Z" fill="#1D1D1B" />
    <path d="M57.0469 25.2968V24.2385L57.2453 24.04H58.6608V25.0984L58.4624 25.2968H57.0469Z" fill="#1D1D1B" />
    <path d="M58.4619 25.2968V24.2385L58.6603 24.04H60.0759V25.0984L59.8774 25.2968H58.4619Z" fill="#1D1D1B" />
    <path d="M59.8779 25.2968V24.2385L60.0764 24.04H61.4919V25.0984L61.2935 25.2968H59.8779Z" fill="#1D1D1B" />
    <path d="M61.2998 25.2968V24.2385L61.4982 24.04H62.9138V25.0984L62.7153 25.2968H61.2998Z" fill="#1D1D1B" />
    <path d="M62.7158 25.2968V24.2385L62.9143 24.04H64.3298V25.0984L64.1313 25.2968H62.7158Z" fill="#1D1D1B" />
    <path d="M64.1309 25.2968V24.2385L64.3293 24.04H65.7448V25.0984L65.5464 25.2968H64.1309Z" fill="#1D1D1B" />
    <path d="M65.5469 25.2968V24.2385L65.7453 24.04H67.1608V25.0984L66.9624 25.2968H65.5469Z" fill="#1D1D1B" />
    <path d="M66.9619 25.2968V24.2385L67.1603 24.04H68.5759V25.0984L68.3774 25.2968H66.9619Z" fill="#1D1D1B" />
    <path d="M68.3779 25.2968V24.2385L68.5764 24.04H69.9919V25.0984L69.7935 25.2968H68.3779Z" fill="#1D1D1B" />
    <path d="M69.793 25.2968V24.2385L69.9914 24.04H71.4069V25.0984L71.2085 25.2968H69.793Z" fill="#1D1D1B" />
    <path d="M71.208 25.2968V24.2385L71.4064 24.04H72.822V25.0984L72.6235 25.2968H71.208Z" fill="#1D1D1B" />
    <path d="M72.624 25.2968V24.2385L72.8225 24.04H74.238V25.0984L74.0395 25.2968H72.624Z" fill="#1D1D1B" />
    <path d="M74.0459 25.2968V24.2385L74.2443 24.04H75.6599V25.0984L75.4614 25.2968H74.0459Z" fill="#1D1D1B" />
    <path d="M75.4619 25.2968V24.2385L75.6604 24.04H77.0759V25.0984L76.8774 25.2968H75.4619Z" fill="#1D1D1B" />
    <path d="M76.877 25.2968V24.2385L77.0754 24.04H78.4909V25.0984L78.2925 25.2968H76.877Z" fill="#1D1D1B" />
    <path d="M78.293 25.2968V24.2385L78.4914 24.04H79.9069V25.0984L79.7085 25.2968H78.293Z" fill="#1D1D1B" />
    <path d="M79.708 25.2968V24.2385L79.9064 24.04H81.322V25.0984L81.1235 25.2968H79.708Z" fill="#1D1D1B" />
    <path
        d="M81.124 25.2985V24.2402L81.3225 24.0417H81.4944C82.394 24.0417 82.91 23.5126 82.91 22.5998V16.0381H84.0609V22.5998C84.0609 24.3063 83.0952 25.2985 81.4944 25.2985H81.124Z"
        fill="#1D1D1B" />
    <path d="M86.2031 25.2985V16.0381H87.3541V25.2985H86.2031Z" fill="#1D1D1B" />
    <path
        d="M96.2516 19.8877C97.1247 20.8534 97.6142 21.7794 97.6142 22.7319C97.6142 24.3327 96.5823 25.4307 95.0081 25.4307C93.4338 25.4307 92.3887 24.3856 92.3887 22.9569C92.3887 21.9117 92.8782 21.0518 93.6455 20.2316L94.6112 19.2262H95.6431L96.2516 19.8877ZM94.9948 17.2815L94.3069 17.9694L93.4205 17.0831L94.3069 16.21L94.9948 16.8979L95.6827 16.21L96.5559 17.0831L95.6827 17.9694L94.9948 17.2815ZM96.5823 22.8774C96.5823 22.2821 96.2251 21.7265 95.4049 20.8402L94.9551 20.3507L94.3995 20.946C93.791 21.581 93.4205 22.1763 93.4205 22.7584C93.4205 23.658 94.0291 24.1739 95.0081 24.1739C95.9341 24.1739 96.5823 23.6712 96.5823 22.8774Z"
        fill="#1D1D1B" />
    <path
        d="M97.6807 28.0764V26.8196H97.8791C99.7841 26.8196 100.988 25.5629 100.988 23.4462C100.988 22.4276 100.803 21.3692 100.525 20.3506H101.689C101.94 21.356 102.086 22.4143 102.086 23.4462C102.086 26.3963 100.353 28.0764 97.8791 28.0764H97.6807Z"
        fill="#1D1D1B" />
    <path
        d="M106.458 25.2985C104.804 25.2985 103.904 24.3592 103.904 22.5468V16.0381H105.055V22.5468C105.055 23.5258 105.545 24.0417 106.524 24.0417H106.656V25.1001L106.458 25.2985Z"
        fill="#1D1D1B" />
    <path d="M106.458 25.2968V24.2385L106.656 24.04H108.072V25.0984L107.874 25.2968H106.458Z" fill="#1D1D1B" />
    <path d="M107.873 25.2968V24.2385L108.071 24.04H109.487V25.0984L109.289 25.2968H107.873Z" fill="#1D1D1B" />
    <path d="M109.289 25.2968V24.2385L109.488 24.04H110.903V25.0984L110.705 25.2968H109.289Z" fill="#1D1D1B" />
    <path d="M110.704 25.2968V24.2385L110.903 24.04H112.318V25.0984L112.12 25.2968H110.704Z" fill="#1D1D1B" />
    <path d="M112.12 25.2968V24.2385L112.319 24.04H113.734V25.0984L113.536 25.2968H112.12Z" fill="#1D1D1B" />
    <path d="M113.542 25.2968V24.2385L113.74 24.04H115.156V25.0984L114.958 25.2968H113.542Z" fill="#1D1D1B" />
    <path d="M114.957 25.2968V24.2385L115.155 24.04H116.571V25.0984L116.373 25.2968H114.957Z" fill="#1D1D1B" />
    <path d="M116.373 25.2968V24.2385L116.571 24.04H117.987V25.0984L117.789 25.2968H116.373Z" fill="#1D1D1B" />
    <path d="M117.788 25.2968V24.2385L117.987 24.04H119.402V25.0984L119.204 25.2968H117.788Z" fill="#1D1D1B" />
    <path d="M119.204 25.2968V24.2385L119.403 24.04H120.818V25.0984L120.62 25.2968H119.204Z" fill="#1D1D1B" />
    <path d="M120.62 25.2968V24.2385L120.819 24.04H122.234V25.0984L122.036 25.2968H120.62Z" fill="#1D1D1B" />
    <path d="M122.034 25.2968V24.2385L122.233 24.04H123.648V25.0984L123.45 25.2968H122.034Z" fill="#1D1D1B" />
    <path d="M123.451 25.2968V24.2385L123.65 24.04H125.065V25.0984L124.867 25.2968H123.451Z" fill="#1D1D1B" />
    <path d="M124.866 25.2968V24.2385L125.065 24.04H126.48V25.0984L126.282 25.2968H124.866Z" fill="#1D1D1B" />
    <path d="M126.289 25.2968V24.2385L126.488 24.04H127.903V25.0984L127.705 25.2968H126.289Z" fill="#1D1D1B" />
    <path d="M127.703 25.2968V24.2385L127.902 24.04H129.317V25.0984L129.119 25.2968H127.703Z" fill="#1D1D1B" />
    <path d="M129.119 25.2968V24.2385L129.318 24.04H130.733V25.0984L130.535 25.2968H129.119Z" fill="#1D1D1B" />
    <path d="M130.535 25.2968V24.2385L130.734 24.04H132.149V25.0984L131.951 25.2968H130.535Z" fill="#1D1D1B" />
    <path d="M131.951 25.2968V24.2385L132.15 24.04H133.565V25.0984L133.367 25.2968H131.951Z" fill="#1D1D1B" />
    <path d="M133.365 25.2968V24.2385L133.564 24.04H134.979V25.0984L134.781 25.2968H133.365Z" fill="#1D1D1B" />
    <path d="M134.781 25.2968V24.2385L134.98 24.04H136.395V25.0984L136.197 25.2968H134.781Z" fill="#1D1D1B" />
    <path d="M136.197 25.2968V24.2385L136.396 24.04H137.811V25.0984L137.613 25.2968H136.197Z" fill="#1D1D1B" />
    <path d="M137.612 25.2968V24.2385L137.811 24.04H139.226V25.0984L139.028 25.2968H137.612Z" fill="#1D1D1B" />
    <path d="M139.034 25.2968V24.2385L139.233 24.04H140.648V25.0984L140.45 25.2968H139.034Z" fill="#1D1D1B" />
    <path d="M140.45 25.2968V24.2385L140.649 24.04H142.064V25.0984L141.866 25.2968H140.45Z" fill="#1D1D1B" />
    <path d="M141.866 25.2968V24.2385L142.065 24.04H143.48V25.0984L143.282 25.2968H141.866Z" fill="#1D1D1B" />
    <path d="M143.281 25.2968V24.2385L143.48 24.04H144.895V25.0984L144.697 25.2968H143.281Z" fill="#1D1D1B" />
    <path d="M144.696 25.2968V24.2385L144.895 24.04H146.31V25.0984L146.112 25.2968H144.696Z" fill="#1D1D1B" />
    <path d="M146.112 25.2968V24.2385L146.311 24.04H147.726V25.0984L147.528 25.2968H146.112Z" fill="#1D1D1B" />
    <path d="M147.527 25.2968V24.2385L147.726 24.04H149.141V25.0984L148.943 25.2968H147.527Z" fill="#1D1D1B" />
    <path d="M148.943 25.2968V24.2385L149.142 24.04H150.557V25.0984L150.359 25.2968H148.943Z" fill="#1D1D1B" />
    <path d="M150.358 25.2968V24.2385L150.557 24.04H151.972V25.0984L151.774 25.2968H150.358Z" fill="#1D1D1B" />
    <path d="M151.774 25.2968V24.2385L151.973 24.04H153.388V25.0984L153.19 25.2968H151.774Z" fill="#1D1D1B" />
    <path d="M153.197 25.2968V24.2385L153.396 24.04H154.811V25.0984L154.613 25.2968H153.197Z" fill="#1D1D1B" />
    <path d="M154.611 25.2968V24.2385L154.81 24.04H156.225V25.0984L156.027 25.2968H154.611Z" fill="#1D1D1B" />
    <path d="M156.027 25.2968V24.2385L156.226 24.04H157.641V25.0984L157.443 25.2968H156.027Z" fill="#1D1D1B" />
    <path
        d="M164.402 22.5194C165.209 23.6968 165.738 24.0407 166.638 24.0407V25.0991L166.439 25.2975C165.46 25.2975 164.746 24.9138 164.058 24.001C163.899 24.9932 163.264 25.615 162.365 25.615C161.915 25.615 161.412 25.4695 160.645 24.9668L159.798 24.4111C159.11 25.0594 158.409 25.2975 157.443 25.2975V24.2391L157.642 24.0407C158.608 24.0407 159.203 23.71 160.102 22.3474L161.491 20.2969H162.867L164.402 22.5194ZM163.37 23.6042C163.37 23.2338 163.211 22.8766 162.841 22.3474L162.074 21.2758L160.949 22.9427C160.83 23.1279 160.711 23.2867 160.605 23.4454L161.134 23.8026C161.783 24.2259 162.232 24.3714 162.537 24.3714C163.026 24.3714 163.37 24.0407 163.37 23.6042Z"
        fill="#1D1D1B" />
    <path
        d="M172.994 24.0408V25.2976H166.445V24.2392L166.644 24.0408H168.112C167.649 23.5381 167.398 22.8767 167.398 22.1623C167.398 20.6012 168.536 19.4238 170.03 19.4238C171.314 19.4238 172.385 20.1911 172.689 21.6596H171.525C171.221 21.0775 170.665 20.6938 169.978 20.6938C169.078 20.6938 168.43 21.342 168.43 22.2152C168.43 23.2074 169.382 24.0408 170.692 24.0408H172.994Z"
        fill="#1D1D1B" />
    <path
        d="M187.572 9.42886V10.8841L187.307 11.1487C185.852 11.1487 185.019 10.5533 184.728 9.29658H182.174C182.148 12.3657 180.256 14.0591 177.729 14.0591H177.465V12.3393H177.729C179.568 12.3393 180.653 11.1883 180.653 9.24365C180.653 8.33083 180.441 7.14022 180.124 5.98928H181.711C181.857 6.51845 181.963 7.04761 182.042 7.57678H184.595V5.98928H185.984V8.03981C185.984 8.99231 186.447 9.42886 187.44 9.42886H187.572ZM185.482 12.8685L186.275 12.0747L187.334 13.133L186.275 14.1914L185.482 13.3976L184.688 14.1914L183.63 13.133L184.688 12.0747L185.482 12.8685ZM193.452 9.42886H195.265V10.8841L195 11.1487H187.314V9.69346L187.579 9.42886H189.947L189.431 8.38376C189.06 7.6297 188.849 7.44448 188.399 7.44448H188.28V5.7247H192.248C193.585 5.7247 194.365 6.39939 194.365 7.52387C194.365 8.14564 194.087 8.75417 193.585 9.28333L193.452 9.42886ZM192.487 3.66093L191.428 4.71927L190.37 3.66093L191.428 2.60261L192.487 3.66093ZM192.248 7.44448H190.661C190.82 7.64292 190.965 7.89429 191.124 8.22502L191.772 9.56116L192.5 8.79386C192.791 8.48959 192.923 8.23825 192.91 8.00012C192.897 7.65616 192.659 7.44448 192.248 7.44448ZM199.835 9.42886V10.8841L199.571 11.1487C198.314 11.1487 197.547 10.646 197.203 9.58762C196.899 10.646 196.184 11.1487 195.007 11.1487V9.69346L195.271 9.42886H195.404C196.396 9.42886 196.859 8.99231 196.859 8.03981V6.51844H198.248V8.03981C198.248 8.99231 198.711 9.42886 199.703 9.42886H199.835ZM197.56 4.71927L196.766 5.51303L195.708 4.45469L196.766 3.39635L197.56 4.19011L198.354 3.39635L199.412 4.45469L198.354 5.51303L197.56 4.71927ZM199.571 11.1487V9.69346L199.835 9.42886H201.251V10.8841L200.986 11.1487H199.571ZM200.986 11.1487V9.69346L201.251 9.42886H202.666V10.8841L202.402 11.1487H200.986ZM202.402 11.1487V9.69346L202.666 9.42886H204.082V10.8841L203.817 11.1487H202.402ZM203.817 11.1487V9.69346L204.082 9.42886H205.497V10.8841L205.233 11.1487H203.817ZM205.233 11.1487V9.69346L205.497 9.42886H206.913V10.8841L206.648 11.1487H205.233ZM206.648 11.1487V9.69346L206.913 9.42886H208.329V10.8841L208.064 11.1487H206.648ZM208.064 11.1487V9.69346L208.329 9.42886H209.744V10.8841L209.479 11.1487H208.064ZM209.479 11.1487V9.69346L209.744 9.42886H211.16V10.8841L210.895 11.1487H209.479ZM210.895 11.1487V9.69346L211.16 9.42886H212.575V10.8841L212.311 11.1487H210.895ZM212.311 11.1487V9.69346L212.575 9.42886H213.991V10.8841L213.726 11.1487H212.311ZM213.726 11.1487V9.69346L213.991 9.42886H215.406V10.8841L215.142 11.1487H213.726ZM215.142 11.1487V9.69346L215.406 9.42886H216.822V10.8841L216.557 11.1487H215.142ZM216.557 11.1487V9.69346L216.822 9.42886H218.237V10.8841L217.973 11.1487H216.557ZM217.973 11.1487V9.69346L218.237 9.42886H219.653V10.8841L219.388 11.1487H217.973ZM219.388 11.1487V9.69346L219.653 9.42886H221.068V10.8841L220.804 11.1487H219.388ZM220.804 11.1487V9.69346L221.068 9.42886H222.484V10.8841L222.219 11.1487H220.804ZM222.219 11.1487V9.69346L222.484 9.42886H223.899V10.8841L223.635 11.1487H222.219ZM223.635 11.1487V9.69346L223.899 9.42886H225.315V10.8841L225.05 11.1487H223.635ZM225.05 11.1487V9.69346L225.315 9.42886H226.73V10.8841L226.466 11.1487H225.05ZM226.466 11.1487V9.69346L226.73 9.42886H228.146V10.8841L227.881 11.1487H226.466ZM227.881 11.1487V9.69346L228.146 9.42886H229.561V10.8841L229.297 11.1487H227.881ZM236.52 7.84136C237.393 9.12459 237.869 9.42886 238.756 9.42886V10.8841L238.491 11.1487C237.433 11.1487 236.626 10.7121 235.951 9.78605C235.766 10.8576 235.157 11.4662 234.231 11.4662C233.808 11.4662 233.345 11.3339 232.472 10.7518L231.757 10.2755C231.056 10.9105 230.329 11.1487 229.297 11.1487V9.69346L229.561 9.42886C230.659 9.42886 231.189 9.03199 232.168 7.47094L233.186 5.85698H235.171L236.52 7.84136ZM235.144 9.16428C235.144 8.82032 235.012 8.55573 234.641 8.02657L234.006 7.12699L233.292 8.27792C233.146 8.51605 233.001 8.74094 232.855 8.95261L233.16 9.15105C233.834 9.60085 234.205 9.74636 234.522 9.74636C234.88 9.74636 235.144 9.49501 235.144 9.16428ZM238.498 11.1487V9.69346L238.762 9.42886H240.178V10.8841L239.913 11.1487H238.498ZM239.913 11.1487V9.69346L240.178 9.42886H241.593V10.8841L241.329 11.1487H239.913ZM241.329 11.1487V9.69346L241.593 9.42886H243.009V10.8841L242.744 11.1487H241.329ZM242.744 11.1487V9.69346L243.009 9.42886H244.424V10.8841L244.16 11.1487H242.744ZM244.16 11.1487V9.69346L244.424 9.42886H245.84V10.8841L245.575 11.1487H244.16ZM245.575 11.1487V9.69346L245.84 9.42886H247.255V10.8841L246.991 11.1487H245.575ZM246.991 11.1487V9.69346L247.255 9.42886H248.671V10.8841L248.406 11.1487H246.991ZM248.406 11.1487V9.69346L248.671 9.42886H250.086V10.8841L249.822 11.1487H248.406ZM249.822 11.1487V9.69346L250.086 9.42886H251.502V10.8841L251.237 11.1487H249.822ZM251.237 11.1487V9.69346L251.502 9.42886H252.918V10.8841L252.653 11.1487H251.237ZM252.653 11.1487V9.69346L252.918 9.42886H254.333V10.8841L254.068 11.1487H252.653ZM254.068 11.1487V9.69346L254.333 9.42886H255.749V10.8841L255.484 11.1487H254.068ZM255.484 11.1487V9.69346L255.749 9.42886H257.164V10.8841L256.9 11.1487H255.484ZM256.9 11.1487V9.69346L257.164 9.42886H258.58V10.8841L258.315 11.1487H256.9ZM258.315 11.1487V9.69346L258.58 9.42886H259.995V10.8841L259.731 11.1487H258.315ZM259.731 11.1487V9.69346L259.995 9.42886H261.411V10.8841L261.146 11.1487H259.731ZM261.146 11.1487V9.69346L261.411 9.42886H262.826V10.8841L262.562 11.1487H261.146ZM262.562 11.1487V9.69346L262.826 9.42886H264.242V10.8841L263.977 11.1487H262.562ZM263.977 11.1487V9.69346L264.242 9.42886H265.657V10.8841L265.393 11.1487H263.977ZM265.393 11.1487V9.69346L265.657 9.42886H267.073V10.8841L266.808 11.1487H265.393ZM266.808 11.1487V9.69346L267.073 9.42886H268.488V10.8841L268.224 11.1487H266.808ZM268.224 11.1487V9.69346L268.488 9.42886H268.621C269.454 9.42886 269.943 8.91293 269.943 8.03981V1.88822H271.531V8.03981C271.531 9.99773 270.446 11.1487 268.621 11.1487H268.224ZM273.383 11.1487V1.88822H274.971V11.1487H273.383ZM286.222 9.42886V10.8841L285.957 11.1487C284.886 11.1487 284.132 10.8047 283.695 10.0903H281.949C280.56 10.0903 279.528 9.30981 279.528 7.97366C279.528 6.63751 280.335 5.84375 281.883 5.26167L283.245 4.74573V3.74032H284.833V8.03981C284.833 8.99231 285.177 9.42886 286.09 9.42886H286.222ZM283.259 8.44991C283.245 8.31762 283.245 8.18533 283.245 8.03981V6.29355L282.28 6.58459C281.34 6.8624 280.917 7.23282 280.917 7.76199C280.917 8.19855 281.301 8.44991 281.949 8.44991H283.259ZM282.862 2.20573L282.068 2.99947L281.01 1.94115L282.068 0.882812L282.862 1.67655L283.656 0.882812L284.714 1.94115L283.656 2.99947L282.862 2.20573ZM290.793 9.42886V10.8841L290.528 11.1487C289.271 11.1487 288.504 10.646 288.16 9.58762C287.856 10.646 287.141 11.1487 285.964 11.1487V9.69346L286.229 9.42886H286.361C287.353 9.42886 287.816 8.99231 287.816 8.03981V6.51844H289.205V8.03981C289.205 8.99231 289.668 9.42886 290.66 9.42886H290.793ZM288.517 12.8685L289.311 12.0747L290.369 13.133L289.311 14.1914L288.517 13.3976L287.724 14.1914L286.665 13.133L287.724 12.0747L288.517 12.8685ZM290.528 11.1487V9.69346L290.793 9.42886H290.925C291.758 9.42886 292.248 8.91293 292.248 8.03981V1.88822H293.835V8.03981C293.835 9.99773 292.751 11.1487 290.925 11.1487H290.528ZM298.333 11.1487C296.521 11.1487 295.621 10.1697 295.621 8.03981V1.88822H297.209V8.03981C297.209 8.99231 297.553 9.42886 298.466 9.42886H298.598V10.8841L298.333 11.1487ZM298.333 11.1487V9.69346L298.598 9.42886H300.013V10.8841L299.749 11.1487H298.333ZM299.749 11.1487V9.69346L300.013 9.42886H301.429V10.8841L301.164 11.1487H299.749ZM301.164 11.1487V9.69346L301.429 9.42886H302.844V10.8841L302.58 11.1487H301.164ZM302.58 11.1487V9.69346L302.844 9.42886H304.26V10.8841L303.995 11.1487H302.58ZM303.995 11.1487V9.69346L304.26 9.42886H305.676V10.8841L305.411 11.1487H303.995ZM305.411 11.1487V9.69346L305.676 9.42886H307.091V10.8841L306.826 11.1487H305.411ZM306.826 11.1487V9.69346L307.091 9.42886H308.507V10.8841L308.242 11.1487H306.826ZM308.242 11.1487V9.69346L308.507 9.42886H309.922V10.8841L309.658 11.1487H308.242ZM309.658 11.1487V9.69346L309.922 9.42886H311.338V10.8841L311.073 11.1487H309.658ZM311.073 11.1487V9.69346L311.338 9.42886H312.753V10.8841L312.489 11.1487H311.073ZM312.489 11.1487V9.69346L312.753 9.42886H314.169V10.8841L313.904 11.1487H312.489ZM313.904 11.1487V9.69346L314.169 9.42886H315.584V10.8841L315.32 11.1487H313.904ZM315.32 11.1487V9.69346L315.584 9.42886H317V10.8841L316.735 11.1487H315.32ZM316.735 11.1487V9.69346L317 9.42886H318.415V10.8841L318.151 11.1487H316.735ZM318.151 11.1487V9.69346L318.415 9.42886H319.831V10.8841L319.566 11.1487H318.151ZM319.566 11.1487V9.69346L319.831 9.42886H321.246V10.8841L320.982 11.1487H319.566ZM320.982 11.1487V9.69346L321.246 9.42886H322.662V10.8841L322.397 11.1487H320.982ZM322.397 11.1487V9.69346L322.662 9.42886H324.077V10.8841L323.813 11.1487H322.397ZM323.813 11.1487V9.69346L324.077 9.42886H325.493V10.8841L325.228 11.1487H323.813ZM325.228 11.1487V9.69346L325.493 9.42886H326.908V10.8841L326.644 11.1487H325.228ZM326.644 11.1487V9.69346L326.908 9.42886H328.324V10.8841L328.059 11.1487H326.644ZM328.059 11.1487V9.69346L328.324 9.42886H329.739V10.8841L329.475 11.1487H328.059ZM329.475 11.1487V9.69346L329.739 9.42886H331.155V10.8841L330.89 11.1487H329.475ZM338.113 7.84136C338.987 9.12459 339.463 9.42886 340.349 9.42886V10.8841L340.085 11.1487C339.026 11.1487 338.219 10.7121 337.545 9.78605C337.359 10.8576 336.751 11.4662 335.825 11.4662C335.402 11.4662 334.938 11.3339 334.065 10.7518L333.351 10.2755C332.65 10.9105 331.922 11.1487 330.89 11.1487V9.69346L331.155 9.42886C332.253 9.42886 332.782 9.03199 333.761 7.47094L334.78 5.85698H336.764L338.113 7.84136ZM336.738 9.16428C336.738 8.82032 336.605 8.55573 336.235 8.02657L335.6 7.12699L334.886 8.27792C334.74 8.51605 334.595 8.74094 334.449 8.95261L334.753 9.15105C335.428 9.60085 335.798 9.74636 336.116 9.74636C336.473 9.74636 336.738 9.49501 336.738 9.16428ZM349.458 6.84917V8.56897H348.465C347.672 8.56897 347.301 8.64834 346.6 9.04522L344.616 10.1565C343.306 10.8841 342.631 11.1487 341.044 11.1487H340.091V9.69346L340.356 9.42886H341.044C342.499 9.42886 343.438 9.19075 344.417 8.66158L345.409 8.1324L344.272 7.70908C343.729 7.51064 343.134 7.3122 341.864 7.3122H340.885V5.5924H341.864C343.293 5.5924 343.848 5.68501 344.788 6.06865L346.005 6.55813C346.6 6.79625 347.076 6.84917 348.518 6.84917H349.458ZM343.425 13.133L344.483 12.0747L345.542 13.133L344.483 14.1914L343.425 13.133Z"
        fill="#1D1D1B" />
    <path
        d="M178.535 15.8779H180.03L183.847 25.3897H182.477L181.393 22.5653H177.126L176.041 25.3897H174.738L178.542 15.8779H178.535ZM180.996 21.5268L179.527 17.7234C179.435 17.4786 179.349 17.2339 179.256 17.0024C179.177 17.2339 179.077 17.4786 178.985 17.7234L177.516 21.5268H180.996Z"
        fill="#1D1D1B" />
    <path
        d="M184.647 18.8413H185.805V19.7211C186.156 19.1522 186.949 18.623 187.829 18.623C189.337 18.623 190.25 19.5756 190.25 21.2557V25.3832H189.079V21.4012C189.079 20.1643 188.669 19.5425 187.637 19.5425C186.493 19.5425 185.818 20.409 185.818 21.4475V25.3898H184.647V18.8413Z"
        fill="#1D1D1B" />
    <path
        d="M197.366 15.8779H198.861L202.678 25.3897H201.308L200.224 22.5653H195.957L194.872 25.3897H193.569L197.373 15.8779H197.366ZM199.827 21.5268L198.358 17.7234C198.266 17.4786 198.18 17.2339 198.087 17.0024C198.008 17.2339 197.908 17.4786 197.816 17.7234L196.347 21.5268H199.827Z"
        fill="#1D1D1B" />
    <path
        d="M203.479 18.8413H204.649V19.9261C204.973 19.1787 205.694 18.623 206.7 18.623C206.779 18.623 206.892 18.6231 206.997 18.6363V19.7938C206.905 19.7806 206.792 19.7674 206.634 19.7674C205.37 19.7674 204.649 20.4751 204.649 21.9303V25.3964H203.479V18.848V18.8413Z"
        fill="#1D1D1B" />
    <path
        d="M207.355 22.0955C207.355 20.0317 208.797 18.6162 210.656 18.6162C212.204 18.6162 213.375 19.5555 213.507 21.0372H212.296C212.191 20.1839 211.602 19.5423 210.623 19.5423C209.373 19.5423 208.559 20.6403 208.559 22.0955C208.559 23.6565 209.386 24.6752 210.649 24.6752C211.615 24.6752 212.263 24.1196 212.389 23.1803H213.547C213.427 24.609 212.389 25.5814 210.596 25.5814C208.804 25.5814 207.349 24.4106 207.349 22.0889L207.355 22.0955Z"
        fill="#1D1D1B" />
    <path
        d="M214.783 15.8779H215.954V19.721C216.305 19.0992 217.078 18.623 217.965 18.623C219.473 18.623 220.386 19.5755 220.386 21.2556V25.3831H219.215V21.4011C219.215 20.1642 218.792 19.5424 217.733 19.5424C216.622 19.5424 215.954 20.4089 215.954 21.4474V25.3897H214.783V15.8779Z"
        fill="#1D1D1B" />
    <path d="M221.94 16.2031H223.296V17.6054H221.94V16.2031ZM222.046 18.8357H223.217V25.3842H222.046V18.8357Z"
        fill="#1D1D1B" />
    <path
        d="M225.42 23.5643V19.8006H224.196V18.8348H225.42V16.6719H226.591V18.8348H227.947V19.8006H226.591V23.4386C226.591 24.1993 226.974 24.444 227.556 24.444C227.722 24.444 227.854 24.4308 228.046 24.4043V25.4097C227.801 25.4626 227.557 25.4891 227.285 25.4891C226.306 25.4891 225.427 25.0129 225.427 23.5576L225.42 23.5643Z"
        fill="#1D1D1B" />
    <path
        d="M228.68 22.0823C228.68 20.0715 229.997 18.6162 231.789 18.6162C233.747 18.6162 234.819 19.9921 234.819 22.0955V22.327H229.845C229.871 23.8219 230.744 24.6752 231.869 24.6752C232.669 24.6752 233.43 24.3643 233.595 23.3589H234.753C234.614 24.5165 233.721 25.588 231.855 25.588C229.898 25.588 228.674 24.3511 228.674 22.0823H228.68ZM233.569 21.5002C233.569 20.3294 232.927 19.5423 231.789 19.5423C230.652 19.5423 229.97 20.3956 229.884 21.5002H233.569Z"
        fill="#1D1D1B" />
    <path
        d="M235.745 22.0955C235.745 20.0317 237.187 18.6162 239.046 18.6162C240.593 18.6162 241.764 19.5555 241.896 21.0372H240.686C240.58 20.1839 239.991 19.5423 239.012 19.5423C237.762 19.5423 236.949 20.6403 236.949 22.0955C236.949 23.6565 237.776 24.6752 239.039 24.6752C240.005 24.6752 240.653 24.1196 240.779 23.1803H241.936C241.817 24.609 240.779 25.5814 238.986 25.5814C237.193 25.5814 235.738 24.4106 235.738 22.0889L235.745 22.0955Z"
        fill="#1D1D1B" />
    <path
        d="M243.636 23.5643V19.8006H242.412V18.8348H243.636V16.6719H244.807V18.8348H246.163V19.8006H244.807V23.4386C244.807 24.1993 245.19 24.444 245.772 24.444C245.938 24.444 246.07 24.4308 246.262 24.4043V25.4097C246.017 25.4626 245.772 25.4891 245.501 25.4891C244.522 25.4891 243.642 25.0129 243.642 23.5576L243.636 23.5643Z"
        fill="#1D1D1B" />
    <path
        d="M247.32 23.0088V18.835H248.491V22.764C248.491 24.0142 248.914 24.6823 249.986 24.6823C251.058 24.6823 251.659 23.8687 251.659 22.4532V18.8416H252.817V25.39H251.673V24.4772C251.362 25.185 250.561 25.5885 249.688 25.5885C248.154 25.5885 247.327 24.6624 247.327 23.0088H247.32Z"
        fill="#1D1D1B" />
    <path
        d="M254.563 18.8413H255.734V19.9261C256.058 19.1787 256.779 18.623 257.785 18.623C257.864 18.623 257.977 18.6231 258.082 18.6363V19.7938C257.99 19.7806 257.877 19.7674 257.719 19.7674C256.455 19.7674 255.734 20.4751 255.734 21.9303V25.3964H254.563V18.848V18.8413Z"
        fill="#1D1D1B" />
    <path
        d="M258.433 22.0823C258.433 20.0715 259.75 18.6162 261.542 18.6162C263.5 18.6162 264.572 19.9921 264.572 22.0955V22.327H259.598C259.624 23.8219 260.497 24.6752 261.622 24.6752C262.422 24.6752 263.183 24.3643 263.348 23.3589H264.506C264.367 24.5165 263.474 25.588 261.608 25.588C259.65 25.588 258.427 24.3511 258.427 22.0823H258.433ZM263.322 21.5002C263.322 20.3294 262.68 19.5423 261.542 19.5423C260.405 19.5423 259.723 20.3956 259.637 21.5002H263.322Z"
        fill="#1D1D1B" />
    <path
        d="M268.447 22.0955C268.447 20.0582 269.777 18.6162 271.669 18.6162C273.56 18.6162 274.89 20.0582 274.89 22.0955C274.89 24.1328 273.547 25.588 271.669 25.588C269.79 25.588 268.447 24.1857 268.447 22.0955ZM271.669 24.6752C272.919 24.6752 273.679 23.6301 273.679 22.0955C273.679 20.5609 272.892 19.5423 271.669 19.5423C270.445 19.5423 269.658 20.5609 269.658 22.0955C269.658 23.6301 270.418 24.6752 271.669 24.6752Z"
        fill="#1D1D1B" />
    <path
        d="M276.596 19.8007H275.359V18.8349H276.596V17.6245C276.596 16.3478 277.463 15.6533 278.468 15.6533C278.753 15.6533 279.011 15.7195 279.136 15.7724V16.7646C279.011 16.7513 278.865 16.7249 278.713 16.7249C278.104 16.7249 277.76 17.0755 277.76 17.7039V18.8349H279.116V19.8007H277.76V25.3834H276.59V19.8007H276.596Z"
        fill="#1D1D1B" />
    <path
        d="M285.348 15.8779H286.842L290.659 25.3897H289.29L288.205 22.5653H283.939L282.854 25.3897H281.551L285.354 15.8779H285.348ZM287.808 21.5268L286.34 17.7234C286.247 17.4786 286.161 17.2339 286.069 17.0024C285.989 17.2339 285.89 17.4786 285.797 17.7234L284.329 21.5268H287.808Z"
        fill="#1D1D1B" />
    <path
        d="M291.035 22.1096C291.035 20.1252 292.219 18.6171 294.078 18.6171C295.163 18.6171 295.884 19.2124 296.181 19.7151V15.8721H297.352V25.3839H296.181V24.471C295.831 25.0796 295.024 25.5823 294.051 25.5823C292.338 25.5823 291.035 24.3321 291.035 22.103V22.1096ZM294.256 24.6761C295.427 24.6761 296.267 23.6707 296.267 22.0964C296.267 20.5221 295.44 19.5432 294.256 19.5432C293.072 19.5432 292.246 20.575 292.246 22.1096C292.246 23.6442 293.059 24.6761 294.256 24.6761Z"
        fill="#1D1D1B" />
    <path
        d="M298.716 23.5904C298.716 22.327 299.721 21.7317 300.892 21.5531L302.294 21.3348C302.797 21.2555 302.962 21.0769 302.962 20.68C302.962 19.959 302.407 19.5423 301.646 19.5423C300.641 19.5423 300.125 20.0715 300.098 20.8851H298.927C298.967 19.6878 299.906 18.6162 301.547 18.6162C303.187 18.6162 304.1 19.582 304.1 21.0901V25.383H302.989V24.5032C302.665 25.1845 301.957 25.588 300.978 25.588C299.728 25.588 298.722 24.8273 298.722 23.5904H298.716ZM301.137 24.6752C302.182 24.6752 302.956 23.9675 302.956 22.9091V21.9434C302.876 22.0624 302.632 22.1616 302.235 22.2278L301.282 22.4064C300.508 22.5585 299.926 22.8959 299.926 23.5904C299.926 24.2849 300.469 24.6752 301.137 24.6752Z"
        fill="#1D1D1B" />
    <path
        d="M305.768 18.8416H306.938V19.7411C307.302 19.159 308.122 18.6299 309.101 18.6299C310.986 18.6299 312.118 20.1116 312.118 22.1092C312.118 24.1068 310.881 25.6017 309.075 25.6017C308.136 25.6017 307.362 25.1519 306.945 24.4904V28.2277H305.774V18.8548L305.768 18.8416ZM308.89 24.6823C310.1 24.6823 310.887 23.6239 310.887 22.1025C310.887 20.5812 310.1 19.5493 308.89 19.5493C307.679 19.5493 306.866 20.5415 306.866 22.1025C306.866 23.6636 307.692 24.6823 308.89 24.6823Z"
        fill="#1D1D1B" />
    <path
        d="M313.824 23.5643V19.8006H312.601V18.8348H313.824V16.6719H314.995V18.8348H316.351V19.8006H314.995V23.4386C314.995 24.1993 315.379 24.444 315.961 24.444C316.126 24.444 316.258 24.4308 316.45 24.4043V25.4097C316.206 25.4626 315.961 25.4891 315.69 25.4891C314.711 25.4891 313.831 25.0129 313.831 23.5576L313.824 23.5643Z"
        fill="#1D1D1B" />
    <path
        d="M317.19 23.5904C317.19 22.327 318.196 21.7317 319.367 21.5531L320.769 21.3348C321.272 21.2555 321.437 21.0769 321.437 20.68C321.437 19.959 320.881 19.5423 320.121 19.5423C319.115 19.5423 318.599 20.0715 318.573 20.8851H317.402C317.442 19.6878 318.381 18.6162 320.021 18.6162C321.662 18.6162 322.575 19.582 322.575 21.0901V25.383H321.463V24.5032C321.139 25.1845 320.432 25.588 319.453 25.588C318.202 25.588 317.197 24.8273 317.197 23.5904H317.19ZM319.611 24.6752C320.656 24.6752 321.43 23.9675 321.43 22.9091V21.9434C321.351 22.0624 321.106 22.1616 320.709 22.2278L319.757 22.4064C318.983 22.5585 318.401 22.8959 318.401 23.5904C318.401 24.2849 318.943 24.6752 319.611 24.6752Z"
        fill="#1D1D1B" />
    <path
        d="M325.405 24.4769V25.3897H324.234V15.8779H325.405V19.721C325.829 19.1389 326.576 18.623 327.568 18.623C329.473 18.623 330.584 20.1179 330.584 22.1155C330.584 24.1131 329.387 25.5948 327.542 25.5948C326.629 25.5948 325.815 25.145 325.412 24.4835L325.405 24.4769ZM327.35 24.682C328.56 24.682 329.361 23.6368 329.361 22.1155C329.361 20.5941 328.574 19.549 327.35 19.549C326.126 19.549 325.339 20.5147 325.339 22.1022C325.339 23.6897 326.166 24.682 327.35 24.682Z"
        fill="#1D1D1B" />
    <path d="M331.782 16.2031H333.138V17.6054H331.782V16.2031ZM331.888 18.8357H333.059V25.3842H331.888V18.8357Z"
        fill="#1D1D1B" />
    <path d="M334.799 15.8779H335.97V25.3897H334.799V15.8779Z" fill="#1D1D1B" />
    <path d="M337.597 16.2031H338.953V17.6054H337.597V16.2031ZM337.703 18.8357H338.873V25.3842H337.703V18.8357Z"
        fill="#1D1D1B" />
    <path
        d="M341.075 23.5643V19.8006H339.852V18.8348H341.075V16.6719H342.246V18.8348H343.602V19.8006H342.246V23.4386C342.246 24.1993 342.63 24.444 343.212 24.444C343.377 24.444 343.509 24.4308 343.701 24.4043V25.4097C343.457 25.4626 343.212 25.4891 342.941 25.4891C341.962 25.4891 341.082 25.0129 341.082 23.5576L341.075 23.5643Z"
        fill="#1D1D1B" />
    <path
        d="M346.777 25.1587L344.157 18.8418H345.447L347.074 23.0288L347.385 23.8292C347.478 23.558 347.577 23.2868 347.67 23.0288L349.112 18.8418H350.335L346.816 28.2147H345.579L346.777 25.1587Z"
        fill="#1D1D1B" />
    <path d="M3.47459 3.15754H0.292969V1.64941H8.41569V3.15754H5.2473V11.1612H3.46797V3.15754H3.47459Z"
        fill="#1D1D1B" />
    <path
        d="M9.2488 1.64941H10.9091V4.83103C10.9091 5.02286 10.8958 5.2279 10.8561 5.48587C11.22 4.8178 11.8483 4.31509 12.8934 4.31509C14.3619 4.31509 15.2284 5.34697 15.2284 6.98077V11.1678H13.5681V7.22551C13.5681 6.24655 13.0919 5.63801 12.318 5.63801C11.5044 5.63801 10.9025 6.359 10.9025 7.28504V11.1678H9.24219V1.65601L9.2488 1.64941Z"
        fill="#1D1D1B" />
    <path
        d="M16.3525 7.8344C16.3525 5.74419 17.7548 4.31543 19.6797 4.31543C21.7037 4.31543 22.8745 5.73095 22.8745 7.88731V8.2511H18.0525C18.0657 9.29621 18.7338 10.0966 19.7392 10.0966C20.4602 10.0966 21.0423 9.68647 21.1547 8.99855H22.8415C22.7025 10.3545 21.5384 11.4063 19.7458 11.4063C17.7614 11.4063 16.3658 10.1297 16.3658 7.8344H16.3525ZM21.1746 7.06048C21.1481 6.1609 20.566 5.55236 19.6665 5.55236C18.7669 5.55236 18.1319 6.19397 18.0393 7.06048H21.1746Z"
        fill="#1D1D1B" />
    <path
        d="M26.877 1.64941H30.8986C32.7309 1.64941 34.1464 2.33071 34.1464 4.05712C34.1464 5.24113 33.2799 5.87614 32.3009 6.13411C33.5511 6.39208 34.4308 7.16599 34.4308 8.42937C34.4308 10.4534 32.625 11.1612 30.7068 11.1612H26.877V1.64941ZM30.6803 5.47925C31.8247 5.47925 32.3075 5.02947 32.3075 4.26879C32.3075 3.56103 31.8181 3.15754 30.6803 3.15754H28.6298V5.47925H30.6803ZM30.773 9.65308C32.0099 9.65308 32.592 9.17681 32.592 8.29707C32.592 7.34457 32.0099 6.95431 30.773 6.95431H28.6232V9.65968H30.773V9.65308Z"
        fill="#1D1D1B" />
    <path
        d="M35.2773 7.8344C35.2773 5.74419 36.6796 4.31543 38.6045 4.31543C40.6286 4.31543 41.7993 5.73095 41.7993 7.88731V8.2511H36.9773C36.9905 9.29621 37.6586 10.0966 38.664 10.0966C39.385 10.0966 39.9671 9.68647 40.0795 8.99855H41.7663C41.6274 10.3545 40.4632 11.4063 38.6706 11.4063C36.6863 11.4063 35.2906 10.1297 35.2906 7.8344H35.2773ZM40.0994 7.06048C40.0729 6.1609 39.4908 5.55236 38.5913 5.55236C37.6917 5.55236 37.0567 6.19397 36.9641 7.06048H40.0994Z"
        fill="#1D1D1B" />
    <path
        d="M42.666 9.34276C42.666 7.84786 43.8236 7.33191 45.2457 7.14009L46.1982 7.01441C46.7406 6.94826 46.9324 6.74322 46.9324 6.4191C46.9324 5.95608 46.5488 5.55259 45.8476 5.55259C45.0737 5.55259 44.5843 5.98915 44.5181 6.68368H42.8049C42.9108 5.30123 44.0419 4.32227 45.755 4.32227C47.7791 4.32227 48.5927 5.40707 48.5927 7.27239V11.1684H47.0581V10.8972C47.0581 10.6789 47.0846 10.4738 47.1243 10.2622C46.7737 10.917 46.0924 11.4197 44.9481 11.4197C43.8037 11.4197 42.666 10.6591 42.666 9.35598V9.34276ZM45.3978 10.1828C46.2776 10.1828 46.9853 9.52797 46.9853 8.59531V7.87432C46.8332 8.01323 46.6017 8.07937 46.1982 8.15874L45.6558 8.26458C44.8819 8.41671 44.3527 8.67468 44.3527 9.26999C44.3527 9.8653 44.8158 10.1828 45.3978 10.1828Z"
        fill="#1D1D1B" />
    <path
        d="M50.002 8.73986V4.52637H51.6754V8.48188C51.6754 9.40792 52.0856 10.0694 52.8859 10.0694C53.726 10.0694 54.3279 9.44762 54.3279 8.46866V4.52637H55.9882V11.1542H54.3477V10.883C54.3477 10.6779 54.3742 10.4464 54.4139 10.248C54.0765 10.883 53.4878 11.4055 52.3898 11.4055C51.0603 11.4055 50.0152 10.4927 50.0152 8.73986H50.002Z"
        fill="#1D1D1B" />
    <path
        d="M58.3157 9.09722V5.84947H56.8076V4.53315H58.3157V2.13867H59.976V4.53315H61.6032V5.84947H59.976V8.85248C59.976 9.54701 60.2472 9.95051 60.955 9.95051C61.1203 9.95051 61.2923 9.93728 61.4577 9.91082V11.161C61.2923 11.2139 60.902 11.28 60.4787 11.28C59.0632 11.28 58.3157 10.5723 58.3157 9.09062V9.09722Z"
        fill="#1D1D1B" />
    <path
        d="M64.5402 11.1091L61.9473 4.53418H63.806L65.2215 8.81382C65.3009 9.04533 65.3736 9.29008 65.4398 9.60096C65.4927 9.29008 65.5787 9.04533 65.6448 8.81382L66.9876 4.53418H68.7272L65.2347 13.9335H63.4686L64.5402 11.1091Z"
        fill="#1D1D1B" />
    <path
        d="M71.4922 7.87408C71.4922 5.69788 72.9077 4.31543 74.8855 4.31543C76.8632 4.31543 78.292 5.69788 78.292 7.87408C78.292 10.0503 76.8765 11.4063 74.8855 11.4063C72.8945 11.4063 71.4922 10.0767 71.4922 7.87408ZM74.8855 10.1032C75.9173 10.1032 76.6119 9.28961 76.6119 7.87408C76.6119 6.45856 75.9041 5.63173 74.8855 5.63173C73.8668 5.63173 73.1723 6.4321 73.1723 7.87408C73.1723 9.31607 73.8536 10.1032 74.8855 10.1032Z"
        fill="#1D1D1B" />
    <path
        d="M80.039 5.84954H78.7227V4.53322H80.039V3.77255C80.039 2.19827 80.8922 1.41113 82.1689 1.41113C82.5922 1.41113 82.8899 1.47729 83.0486 1.53021V2.83327C82.9428 2.79358 82.7774 2.76714 82.5856 2.76714C82.0829 2.76714 81.686 3.05156 81.686 3.63365V4.53322H83.0684V5.84954H81.686V11.1611H80.0257V5.84954H80.039Z"
        fill="#1D1D1B" />
    <path d="M86.5605 1.64941H88.3399V11.1612H86.5605V1.64941Z" fill="#1D1D1B" />
    <path
        d="M90.1064 4.5337H91.7667V4.83137C91.7667 5.03642 91.7535 5.26792 91.7138 5.48621C92.0379 4.90412 92.6531 4.31543 93.632 4.31543C94.4588 4.31543 95.1269 4.95704 95.3717 5.55236C95.7553 4.91735 96.5557 4.31543 97.5214 4.31543C98.8642 4.31543 99.8034 5.37376 99.8034 6.99433V11.1681H98.1432V7.23907C98.1432 6.27334 97.7595 5.63835 97.0452 5.63835C96.3308 5.63835 95.7818 6.30642 95.7818 7.31184V11.1681H94.1215V7.23907C94.1215 6.27334 93.7709 5.63835 93.0235 5.63835C92.276 5.63835 91.7733 6.27996 91.7733 7.31184V11.1681H90.1131V4.54032L90.1064 4.5337Z"
        fill="#1D1D1B" />
    <path
        d="M101.284 4.5337H102.944V4.83137C102.944 5.03642 102.931 5.21501 102.892 5.48621C103.315 4.77844 104.016 4.31543 105.068 4.31543C106.821 4.31543 107.978 5.78387 107.978 7.88731C107.978 9.99075 106.688 11.4063 105.002 11.4063C103.89 11.4063 103.315 10.93 102.898 10.2487C102.938 10.5199 102.951 10.6985 102.951 10.8837V13.9264H101.291V4.5271L101.284 4.5337ZM104.585 10.1032C105.604 10.1032 106.285 9.19038 106.285 7.86084C106.285 6.53131 105.643 5.63173 104.585 5.63173C103.593 5.63173 102.872 6.48501 102.872 7.86084C102.872 9.23668 103.579 10.1032 104.585 10.1032Z"
        fill="#1D1D1B" />
    <path
        d="M108.76 7.8344C108.76 5.74419 110.162 4.31543 112.087 4.31543C114.111 4.31543 115.282 5.73095 115.282 7.88731V8.2511H110.46C110.473 9.29621 111.141 10.0966 112.146 10.0966C112.867 10.0966 113.45 9.68647 113.562 8.99855H115.249C115.11 10.3545 113.946 11.4063 112.153 11.4063C110.169 11.4063 108.773 10.1297 108.773 7.8344H108.76ZM113.582 7.06048C113.555 6.1609 112.973 5.55236 112.074 5.55236C111.174 5.55236 110.539 6.19397 110.446 7.06048H113.582Z"
        fill="#1D1D1B" />
    <path
        d="M116.491 4.5337H118.151V5.03642C118.151 5.28116 118.138 5.4862 118.099 5.73094C118.449 4.98349 119.051 4.31543 120.043 4.31543C120.182 4.31543 120.288 4.32866 120.394 4.35512V5.95584C120.288 5.92938 120.136 5.90293 119.918 5.90293C118.899 5.90293 118.151 6.41887 118.151 7.87408V11.1615H116.491V4.5337Z"
        fill="#1D1D1B" />
    <path
        d="M121.274 4.5337H122.935V4.83137C122.935 5.03642 122.921 5.26792 122.882 5.48621C123.206 4.90412 123.821 4.31543 124.8 4.31543C125.627 4.31543 126.295 4.95704 126.54 5.55236C126.923 4.91735 127.724 4.31543 128.689 4.31543C130.032 4.31543 130.971 5.37376 130.971 6.99433V11.1681H129.311V7.23907C129.311 6.27334 128.928 5.63835 128.213 5.63835C127.499 5.63835 126.95 6.30642 126.95 7.31184V11.1681H125.289V7.23907C125.289 6.27334 124.939 5.63835 124.191 5.63835C123.444 5.63835 122.941 6.27996 122.941 7.31184V11.1681H121.281V4.54032L121.274 4.5337Z"
        fill="#1D1D1B" />
    <path
        d="M132.115 9.34276C132.115 7.84786 133.273 7.33191 134.695 7.14009L135.647 7.01441C136.19 6.94826 136.382 6.74322 136.382 6.4191C136.382 5.95608 135.998 5.55259 135.297 5.55259C134.523 5.55259 134.033 5.98915 133.967 6.68368H132.254C132.36 5.30123 133.491 4.32227 135.204 4.32227C137.228 4.32227 138.042 5.40707 138.042 7.27239V11.1684H136.507V10.8972C136.507 10.6789 136.534 10.4738 136.573 10.2622C136.223 10.917 135.542 11.4197 134.397 11.4197C133.253 11.4197 132.115 10.6591 132.115 9.35598V9.34276ZM134.847 10.1828C135.727 10.1828 136.435 9.52797 136.435 8.59531V7.87432C136.282 8.01323 136.051 8.07937 135.647 8.15874L135.105 8.26458C134.331 8.41671 133.802 8.67468 133.802 9.26999C133.802 9.8653 134.265 10.1828 134.847 10.1828Z"
        fill="#1D1D1B" />
    <path
        d="M139.516 4.5337H141.177V4.83137C141.177 5.02319 141.163 5.22824 141.124 5.48621C141.488 4.81813 142.116 4.31543 143.161 4.31543C144.629 4.31543 145.496 5.34731 145.496 6.98111V11.1681H143.836V7.22585C143.836 6.24689 143.359 5.63835 142.586 5.63835C141.772 5.63835 141.17 6.35933 141.17 7.28538V11.1681H139.51V4.54032L139.516 4.5337Z"
        fill="#1D1D1B" />
    <path
        d="M146.62 7.8344C146.62 5.74419 148.022 4.31543 149.947 4.31543C151.971 4.31543 153.142 5.73095 153.142 7.88731V8.2511H148.32C148.333 9.29621 149.001 10.0966 150.007 10.0966C150.728 10.0966 151.31 9.68647 151.422 8.99855H153.109C152.97 10.3545 151.806 11.4063 150.013 11.4063C148.029 11.4063 146.633 10.1297 146.633 7.8344H146.62ZM151.442 7.06048C151.416 6.1609 150.834 5.55236 149.934 5.55236C149.034 5.55236 148.399 6.19397 148.307 7.06048H151.442Z"
        fill="#1D1D1B" />
    <path
        d="M154.353 4.5337H156.014V4.83137C156.014 5.02319 156 5.22824 155.961 5.48621C156.324 4.81813 156.953 4.31543 157.998 4.31543C159.466 4.31543 160.333 5.34731 160.333 6.98111V11.1681H158.673V7.22585C158.673 6.24689 158.196 5.63835 157.422 5.63835C156.609 5.63835 156.007 6.35933 156.007 7.28538V11.1681H154.347V4.54032L154.353 4.5337Z"
        fill="#1D1D1B" />
    <path
        d="M161.458 7.84762C161.458 5.63173 162.966 4.31543 164.898 4.31543C166.829 4.31543 167.874 5.4862 168.033 7.03402H166.346C166.293 6.28657 165.83 5.63173 164.891 5.63173C163.952 5.63173 163.138 6.41886 163.138 7.86084C163.138 9.17715 163.833 10.1032 164.851 10.1032C165.87 10.1032 166.333 9.4219 166.412 8.63476H168.099C167.868 10.3215 166.783 11.4063 164.812 11.4063C162.708 11.4063 161.458 10.0503 161.458 7.84762Z"
        fill="#1D1D1B" />
    <path
        d="M168.808 7.8344C168.808 5.74419 170.21 4.31543 172.135 4.31543C174.159 4.31543 175.33 5.73095 175.33 7.88731V8.2511H170.508C170.521 9.29621 171.189 10.0966 172.194 10.0966C172.915 10.0966 173.497 9.68647 173.61 8.99855H175.297C175.158 10.3545 173.993 11.4063 172.201 11.4063C170.217 11.4063 168.821 10.1297 168.821 7.8344H168.808ZM173.63 7.06048C173.603 6.1609 173.021 5.55236 172.122 5.55236C171.222 5.55236 170.587 6.19397 170.494 7.06048H173.63Z"
        fill="#1D1D1B" />
    <path
        d="M20.0909 24.0407V25.099L19.8925 25.2975C18.7415 25.2975 17.9742 24.8212 17.6303 23.9084C17.2863 24.8212 16.5322 25.2975 15.3945 25.2975V24.2391L15.593 24.0407H15.7253C16.7704 24.0407 17.326 23.5247 17.326 22.5458V20.8789H18.3579V22.5458C18.3579 23.5247 18.9135 24.0407 19.9586 24.0407H20.0909ZM17.8419 27.1892L18.5298 26.5013L19.403 27.3744L18.5298 28.2608L17.8419 27.5729L17.154 28.2608L16.2677 27.3744L17.154 26.5013L17.8419 27.1892Z"
        fill="#1D1D1B" />
    <path
        d="M23.4978 22.1362C24.3973 23.5517 24.9927 24.0412 25.8393 24.0412V25.0996L25.6409 25.298C24.6355 25.298 23.9475 24.8879 23.167 23.7767C22.9818 24.8482 22.2278 25.298 21.1826 25.298H19.8994V24.2396L20.0979 24.0412H21.3679C22.1087 24.0412 22.5585 23.737 22.5585 23.1946C22.5585 22.8903 22.413 22.5992 22.1219 22.1495L20.5609 19.6888V18.4321L25.7203 15.9053V17.1753L21.606 19.1993L23.4978 22.1362Z"
        fill="#1D1D1B" />
    <path
        d="M30.337 24.0413V25.0996L30.1385 25.2981C28.9876 25.2981 28.2203 24.8218 27.8764 23.909C27.5324 24.8218 26.7783 25.2981 25.6406 25.2981V24.2397L25.8391 24.0413H25.9714C27.0165 24.0413 27.5721 23.5253 27.5721 22.5464V20.8795H28.604V22.5464C28.604 23.5253 29.1596 24.0413 30.2047 24.0413H30.337ZM28.088 18.9348L27.4001 19.6227L26.5138 18.7364L27.4001 17.8633L28.088 18.5512L28.7759 17.8633L29.6491 18.7364L28.7759 19.6227L28.088 18.9348Z"
        fill="#1D1D1B" />
    <path d="M30.1387 25.2968V24.2385L30.3371 24.04H31.7526V25.0984L31.5542 25.2968H30.1387Z" fill="#1D1D1B" />
    <path d="M31.5537 25.2968V24.2385L31.7522 24.04H33.1677V25.0984L32.9692 25.2968H31.5537Z" fill="#1D1D1B" />
    <path d="M32.9697 25.2968V24.2385L33.1682 24.04H34.5837V25.0984L34.3852 25.2968H32.9697Z" fill="#1D1D1B" />
    <path d="M34.3916 25.2968V24.2385L34.59 24.04H36.0056V25.0984L35.8071 25.2968H34.3916Z" fill="#1D1D1B" />
    <path d="M35.8076 25.2968V24.2385L36.0061 24.04H37.4216V25.0984L37.2231 25.2968H35.8076Z" fill="#1D1D1B" />
    <path d="M37.2227 25.2968V24.2385L37.4211 24.04H38.8366V25.0984L38.6382 25.2968H37.2227Z" fill="#1D1D1B" />
    <path d="M38.6387 25.2968V24.2385L38.8371 24.04H40.2526V25.0984L40.0542 25.2968H38.6387Z" fill="#1D1D1B" />
    <path d="M40.0537 25.2968V24.2385L40.2521 24.04H41.6677V25.0984L41.4692 25.2968H40.0537Z" fill="#1D1D1B" />
    <path d="M41.4688 25.2968V24.2385L41.6672 24.04H43.0827V25.0984L42.8843 25.2968H41.4688Z" fill="#1D1D1B" />
    <path d="M42.8848 25.2968V24.2385L43.0832 24.04H44.4987V25.0984L44.3003 25.2968H42.8848Z" fill="#1D1D1B" />
    <path d="M44.3008 25.2968V24.2385L44.4992 24.04H45.9147V25.0984L45.7163 25.2968H44.3008Z" fill="#1D1D1B" />
    <path d="M45.7158 25.2968V24.2385L45.9143 24.04H47.3298V25.0984L47.1313 25.2968H45.7158Z" fill="#1D1D1B" />
    <path d="M47.1318 25.2968V24.2385L47.3303 24.04H48.7458V25.0984L48.5474 25.2968H47.1318Z" fill="#1D1D1B" />
    <path d="M48.5537 25.2968V24.2385L48.7522 24.04H50.1677V25.0984L49.9692 25.2968H48.5537Z" fill="#1D1D1B" />
    <path d="M49.9688 25.2968V24.2385L50.1672 24.04H51.5827V25.0984L51.3843 25.2968H49.9688Z" fill="#1D1D1B" />
    <path d="M51.3848 25.2968V24.2385L51.5832 24.04H52.9987V25.0984L52.8003 25.2968H51.3848Z" fill="#1D1D1B" />
    <path d="M52.7998 25.2968V24.2385L52.9982 24.04H54.4138V25.0984L54.2153 25.2968H52.7998Z" fill="#1D1D1B" />
    <path d="M54.2158 25.2968V24.2385L54.4143 24.04H55.8298V25.0984L55.6313 25.2968H54.2158Z" fill="#1D1D1B" />
    <path d="M55.6318 25.2968V24.2385L55.8303 24.04H57.2458V25.0984L57.0474 25.2968H55.6318Z" fill="#1D1D1B" />
    <path d="M57.0469 25.2968V24.2385L57.2453 24.04H58.6608V25.0984L58.4624 25.2968H57.0469Z" fill="#1D1D1B" />
    <path d="M58.4619 25.2968V24.2385L58.6603 24.04H60.0759V25.0984L59.8774 25.2968H58.4619Z" fill="#1D1D1B" />
    <path d="M59.8779 25.2968V24.2385L60.0764 24.04H61.4919V25.0984L61.2935 25.2968H59.8779Z" fill="#1D1D1B" />
    <path d="M61.2998 25.2968V24.2385L61.4982 24.04H62.9138V25.0984L62.7153 25.2968H61.2998Z" fill="#1D1D1B" />
    <path d="M62.7158 25.2968V24.2385L62.9143 24.04H64.3298V25.0984L64.1313 25.2968H62.7158Z" fill="#1D1D1B" />
    <path d="M64.1309 25.2968V24.2385L64.3293 24.04H65.7448V25.0984L65.5464 25.2968H64.1309Z" fill="#1D1D1B" />
    <path d="M65.5469 25.2968V24.2385L65.7453 24.04H67.1608V25.0984L66.9624 25.2968H65.5469Z" fill="#1D1D1B" />
    <path d="M66.9619 25.2968V24.2385L67.1603 24.04H68.5759V25.0984L68.3774 25.2968H66.9619Z" fill="#1D1D1B" />
    <path d="M68.3779 25.2968V24.2385L68.5764 24.04H69.9919V25.0984L69.7935 25.2968H68.3779Z" fill="#1D1D1B" />
    <path d="M69.793 25.2968V24.2385L69.9914 24.04H71.4069V25.0984L71.2085 25.2968H69.793Z" fill="#1D1D1B" />
    <path d="M71.208 25.2968V24.2385L71.4064 24.04H72.822V25.0984L72.6235 25.2968H71.208Z" fill="#1D1D1B" />
    <path d="M72.624 25.2968V24.2385L72.8225 24.04H74.238V25.0984L74.0395 25.2968H72.624Z" fill="#1D1D1B" />
    <path d="M74.0459 25.2968V24.2385L74.2443 24.04H75.6599V25.0984L75.4614 25.2968H74.0459Z" fill="#1D1D1B" />
    <path d="M75.4619 25.2968V24.2385L75.6604 24.04H77.0759V25.0984L76.8774 25.2968H75.4619Z" fill="#1D1D1B" />
    <path d="M76.877 25.2968V24.2385L77.0754 24.04H78.4909V25.0984L78.2925 25.2968H76.877Z" fill="#1D1D1B" />
    <path d="M78.293 25.2968V24.2385L78.4914 24.04H79.9069V25.0984L79.7085 25.2968H78.293Z" fill="#1D1D1B" />
    <path d="M79.708 25.2968V24.2385L79.9064 24.04H81.322V25.0984L81.1235 25.2968H79.708Z" fill="#1D1D1B" />
    <path
        d="M81.124 25.2985V24.2402L81.3225 24.0417H81.4944C82.394 24.0417 82.91 23.5126 82.91 22.5998V16.0381H84.0609V22.5998C84.0609 24.3063 83.0952 25.2985 81.4944 25.2985H81.124Z"
        fill="#1D1D1B" />
    <path d="M86.2031 25.2985V16.0381H87.3541V25.2985H86.2031Z" fill="#1D1D1B" />
    <path
        d="M96.2516 19.8877C97.1247 20.8534 97.6142 21.7794 97.6142 22.7319C97.6142 24.3327 96.5823 25.4307 95.0081 25.4307C93.4338 25.4307 92.3887 24.3856 92.3887 22.9569C92.3887 21.9117 92.8782 21.0518 93.6455 20.2316L94.6112 19.2262H95.6431L96.2516 19.8877ZM94.9948 17.2815L94.3069 17.9694L93.4205 17.0831L94.3069 16.21L94.9948 16.8979L95.6827 16.21L96.5559 17.0831L95.6827 17.9694L94.9948 17.2815ZM96.5823 22.8774C96.5823 22.2821 96.2251 21.7265 95.4049 20.8402L94.9551 20.3507L94.3995 20.946C93.791 21.581 93.4205 22.1763 93.4205 22.7584C93.4205 23.658 94.0291 24.1739 95.0081 24.1739C95.9341 24.1739 96.5823 23.6712 96.5823 22.8774Z"
        fill="#1D1D1B" />
    <path
        d="M97.6807 28.0764V26.8196H97.8791C99.7841 26.8196 100.988 25.5629 100.988 23.4462C100.988 22.4276 100.803 21.3692 100.525 20.3506H101.689C101.94 21.356 102.086 22.4143 102.086 23.4462C102.086 26.3963 100.353 28.0764 97.8791 28.0764H97.6807Z"
        fill="#1D1D1B" />
    <path
        d="M106.458 25.2985C104.804 25.2985 103.904 24.3592 103.904 22.5468V16.0381H105.055V22.5468C105.055 23.5258 105.545 24.0417 106.524 24.0417H106.656V25.1001L106.458 25.2985Z"
        fill="#1D1D1B" />
    <path d="M106.458 25.2968V24.2385L106.656 24.04H108.072V25.0984L107.874 25.2968H106.458Z" fill="#1D1D1B" />
    <path d="M107.873 25.2968V24.2385L108.071 24.04H109.487V25.0984L109.289 25.2968H107.873Z" fill="#1D1D1B" />
    <path d="M109.289 25.2968V24.2385L109.488 24.04H110.903V25.0984L110.705 25.2968H109.289Z" fill="#1D1D1B" />
    <path d="M110.704 25.2968V24.2385L110.903 24.04H112.318V25.0984L112.12 25.2968H110.704Z" fill="#1D1D1B" />
    <path d="M112.12 25.2968V24.2385L112.319 24.04H113.734V25.0984L113.536 25.2968H112.12Z" fill="#1D1D1B" />
    <path d="M113.542 25.2968V24.2385L113.74 24.04H115.156V25.0984L114.958 25.2968H113.542Z" fill="#1D1D1B" />
    <path d="M114.957 25.2968V24.2385L115.155 24.04H116.571V25.0984L116.373 25.2968H114.957Z" fill="#1D1D1B" />
    <path d="M116.373 25.2968V24.2385L116.571 24.04H117.987V25.0984L117.789 25.2968H116.373Z" fill="#1D1D1B" />
    <path d="M117.788 25.2968V24.2385L117.987 24.04H119.402V25.0984L119.204 25.2968H117.788Z" fill="#1D1D1B" />
    <path d="M119.204 25.2968V24.2385L119.403 24.04H120.818V25.0984L120.62 25.2968H119.204Z" fill="#1D1D1B" />
    <path d="M120.62 25.2968V24.2385L120.819 24.04H122.234V25.0984L122.036 25.2968H120.62Z" fill="#1D1D1B" />
    <path d="M122.034 25.2968V24.2385L122.233 24.04H123.648V25.0984L123.45 25.2968H122.034Z" fill="#1D1D1B" />
    <path d="M123.451 25.2968V24.2385L123.65 24.04H125.065V25.0984L124.867 25.2968H123.451Z" fill="#1D1D1B" />
    <path d="M124.866 25.2968V24.2385L125.065 24.04H126.48V25.0984L126.282 25.2968H124.866Z" fill="#1D1D1B" />
    <path d="M126.289 25.2968V24.2385L126.488 24.04H127.903V25.0984L127.705 25.2968H126.289Z" fill="#1D1D1B" />
    <path d="M127.703 25.2968V24.2385L127.902 24.04H129.317V25.0984L129.119 25.2968H127.703Z" fill="#1D1D1B" />
    <path d="M129.119 25.2968V24.2385L129.318 24.04H130.733V25.0984L130.535 25.2968H129.119Z" fill="#1D1D1B" />
    <path d="M130.535 25.2968V24.2385L130.734 24.04H132.149V25.0984L131.951 25.2968H130.535Z" fill="#1D1D1B" />
    <path d="M131.951 25.2968V24.2385L132.15 24.04H133.565V25.0984L133.367 25.2968H131.951Z" fill="#1D1D1B" />
    <path d="M133.365 25.2968V24.2385L133.564 24.04H134.979V25.0984L134.781 25.2968H133.365Z" fill="#1D1D1B" />
    <path d="M134.781 25.2968V24.2385L134.98 24.04H136.395V25.0984L136.197 25.2968H134.781Z" fill="#1D1D1B" />
    <path d="M136.197 25.2968V24.2385L136.396 24.04H137.811V25.0984L137.613 25.2968H136.197Z" fill="#1D1D1B" />
    <path d="M137.612 25.2968V24.2385L137.811 24.04H139.226V25.0984L139.028 25.2968H137.612Z" fill="#1D1D1B" />
    <path d="M139.034 25.2968V24.2385L139.233 24.04H140.648V25.0984L140.45 25.2968H139.034Z" fill="#1D1D1B" />
    <path d="M140.45 25.2968V24.2385L140.649 24.04H142.064V25.0984L141.866 25.2968H140.45Z" fill="#1D1D1B" />
    <path d="M141.866 25.2968V24.2385L142.065 24.04H143.48V25.0984L143.282 25.2968H141.866Z" fill="#1D1D1B" />
    <path d="M143.281 25.2968V24.2385L143.48 24.04H144.895V25.0984L144.697 25.2968H143.281Z" fill="#1D1D1B" />
    <path d="M144.696 25.2968V24.2385L144.895 24.04H146.31V25.0984L146.112 25.2968H144.696Z" fill="#1D1D1B" />
    <path d="M146.112 25.2968V24.2385L146.311 24.04H147.726V25.0984L147.528 25.2968H146.112Z" fill="#1D1D1B" />
    <path d="M147.527 25.2968V24.2385L147.726 24.04H149.141V25.0984L148.943 25.2968H147.527Z" fill="#1D1D1B" />
    <path d="M148.943 25.2968V24.2385L149.142 24.04H150.557V25.0984L150.359 25.2968H148.943Z" fill="#1D1D1B" />
    <path d="M150.358 25.2968V24.2385L150.557 24.04H151.972V25.0984L151.774 25.2968H150.358Z" fill="#1D1D1B" />
    <path d="M151.774 25.2968V24.2385L151.973 24.04H153.388V25.0984L153.19 25.2968H151.774Z" fill="#1D1D1B" />
    <path d="M153.197 25.2968V24.2385L153.396 24.04H154.811V25.0984L154.613 25.2968H153.197Z" fill="#1D1D1B" />
    <path d="M154.611 25.2968V24.2385L154.81 24.04H156.225V25.0984L156.027 25.2968H154.611Z" fill="#1D1D1B" />
    <path d="M156.027 25.2968V24.2385L156.226 24.04H157.641V25.0984L157.443 25.2968H156.027Z" fill="#1D1D1B" />
    <path
        d="M164.402 22.5194C165.209 23.6968 165.738 24.0407 166.638 24.0407V25.0991L166.439 25.2975C165.46 25.2975 164.746 24.9138 164.058 24.001C163.899 24.9932 163.264 25.615 162.365 25.615C161.915 25.615 161.412 25.4695 160.645 24.9668L159.798 24.4111C159.11 25.0594 158.409 25.2975 157.443 25.2975V24.2391L157.642 24.0407C158.608 24.0407 159.203 23.71 160.102 22.3474L161.491 20.2969H162.867L164.402 22.5194ZM163.37 23.6042C163.37 23.2338 163.211 22.8766 162.841 22.3474L162.074 21.2758L160.949 22.9427C160.83 23.1279 160.711 23.2867 160.605 23.4454L161.134 23.8026C161.783 24.2259 162.232 24.3714 162.537 24.3714C163.026 24.3714 163.37 24.0407 163.37 23.6042Z"
        fill="#1D1D1B" />
    <path
        d="M172.994 24.0408V25.2976H166.445V24.2392L166.644 24.0408H168.112C167.649 23.5381 167.398 22.8767 167.398 22.1623C167.398 20.6012 168.536 19.4238 170.03 19.4238C171.314 19.4238 172.385 20.1911 172.689 21.6596H171.525C171.221 21.0775 170.665 20.6938 169.978 20.6938C169.078 20.6938 168.43 21.342 168.43 22.2152C168.43 23.2074 169.382 24.0408 170.692 24.0408H172.994Z"
        fill="#1D1D1B" />
    <path
        d="M187.572 9.42886V10.8841L187.307 11.1487C185.852 11.1487 185.019 10.5533 184.728 9.29658H182.174C182.148 12.3657 180.256 14.0591 177.729 14.0591H177.465V12.3393H177.729C179.568 12.3393 180.653 11.1883 180.653 9.24365C180.653 8.33083 180.441 7.14022 180.124 5.98928H181.711C181.857 6.51845 181.963 7.04761 182.042 7.57678H184.595V5.98928H185.984V8.03981C185.984 8.99231 186.447 9.42886 187.44 9.42886H187.572ZM185.482 12.8685L186.275 12.0747L187.334 13.133L186.275 14.1914L185.482 13.3976L184.688 14.1914L183.63 13.133L184.688 12.0747L185.482 12.8685ZM193.452 9.42886H195.265V10.8841L195 11.1487H187.314V9.69346L187.579 9.42886H189.947L189.431 8.38376C189.06 7.6297 188.849 7.44448 188.399 7.44448H188.28V5.7247H192.248C193.585 5.7247 194.365 6.39939 194.365 7.52387C194.365 8.14564 194.087 8.75417 193.585 9.28333L193.452 9.42886ZM192.487 3.66093L191.428 4.71927L190.37 3.66093L191.428 2.60261L192.487 3.66093ZM192.248 7.44448H190.661C190.82 7.64292 190.965 7.89429 191.124 8.22502L191.772 9.56116L192.5 8.79386C192.791 8.48959 192.923 8.23825 192.91 8.00012C192.897 7.65616 192.659 7.44448 192.248 7.44448ZM199.835 9.42886V10.8841L199.571 11.1487C198.314 11.1487 197.547 10.646 197.203 9.58762C196.899 10.646 196.184 11.1487 195.007 11.1487V9.69346L195.271 9.42886H195.404C196.396 9.42886 196.859 8.99231 196.859 8.03981V6.51844H198.248V8.03981C198.248 8.99231 198.711 9.42886 199.703 9.42886H199.835ZM197.56 4.71927L196.766 5.51303L195.708 4.45469L196.766 3.39635L197.56 4.19011L198.354 3.39635L199.412 4.45469L198.354 5.51303L197.56 4.71927ZM199.571 11.1487V9.69346L199.835 9.42886H201.251V10.8841L200.986 11.1487H199.571ZM200.986 11.1487V9.69346L201.251 9.42886H202.666V10.8841L202.402 11.1487H200.986ZM202.402 11.1487V9.69346L202.666 9.42886H204.082V10.8841L203.817 11.1487H202.402ZM203.817 11.1487V9.69346L204.082 9.42886H205.497V10.8841L205.233 11.1487H203.817ZM205.233 11.1487V9.69346L205.497 9.42886H206.913V10.8841L206.648 11.1487H205.233ZM206.648 11.1487V9.69346L206.913 9.42886H208.329V10.8841L208.064 11.1487H206.648ZM208.064 11.1487V9.69346L208.329 9.42886H209.744V10.8841L209.479 11.1487H208.064ZM209.479 11.1487V9.69346L209.744 9.42886H211.16V10.8841L210.895 11.1487H209.479ZM210.895 11.1487V9.69346L211.16 9.42886H212.575V10.8841L212.311 11.1487H210.895ZM212.311 11.1487V9.69346L212.575 9.42886H213.991V10.8841L213.726 11.1487H212.311ZM213.726 11.1487V9.69346L213.991 9.42886H215.406V10.8841L215.142 11.1487H213.726ZM215.142 11.1487V9.69346L215.406 9.42886H216.822V10.8841L216.557 11.1487H215.142ZM216.557 11.1487V9.69346L216.822 9.42886H218.237V10.8841L217.973 11.1487H216.557ZM217.973 11.1487V9.69346L218.237 9.42886H219.653V10.8841L219.388 11.1487H217.973ZM219.388 11.1487V9.69346L219.653 9.42886H221.068V10.8841L220.804 11.1487H219.388ZM220.804 11.1487V9.69346L221.068 9.42886H222.484V10.8841L222.219 11.1487H220.804ZM222.219 11.1487V9.69346L222.484 9.42886H223.899V10.8841L223.635 11.1487H222.219ZM223.635 11.1487V9.69346L223.899 9.42886H225.315V10.8841L225.05 11.1487H223.635ZM225.05 11.1487V9.69346L225.315 9.42886H226.73V10.8841L226.466 11.1487H225.05ZM226.466 11.1487V9.69346L226.73 9.42886H228.146V10.8841L227.881 11.1487H226.466ZM227.881 11.1487V9.69346L228.146 9.42886H229.561V10.8841L229.297 11.1487H227.881ZM236.52 7.84136C237.393 9.12459 237.869 9.42886 238.756 9.42886V10.8841L238.491 11.1487C237.433 11.1487 236.626 10.7121 235.951 9.78605C235.766 10.8576 235.157 11.4662 234.231 11.4662C233.808 11.4662 233.345 11.3339 232.472 10.7518L231.757 10.2755C231.056 10.9105 230.329 11.1487 229.297 11.1487V9.69346L229.561 9.42886C230.659 9.42886 231.189 9.03199 232.168 7.47094L233.186 5.85698H235.171L236.52 7.84136ZM235.144 9.16428C235.144 8.82032 235.012 8.55573 234.641 8.02657L234.006 7.12699L233.292 8.27792C233.146 8.51605 233.001 8.74094 232.855 8.95261L233.16 9.15105C233.834 9.60085 234.205 9.74636 234.522 9.74636C234.88 9.74636 235.144 9.49501 235.144 9.16428ZM238.498 11.1487V9.69346L238.762 9.42886H240.178V10.8841L239.913 11.1487H238.498ZM239.913 11.1487V9.69346L240.178 9.42886H241.593V10.8841L241.329 11.1487H239.913ZM241.329 11.1487V9.69346L241.593 9.42886H243.009V10.8841L242.744 11.1487H241.329ZM242.744 11.1487V9.69346L243.009 9.42886H244.424V10.8841L244.16 11.1487H242.744ZM244.16 11.1487V9.69346L244.424 9.42886H245.84V10.8841L245.575 11.1487H244.16ZM245.575 11.1487V9.69346L245.84 9.42886H247.255V10.8841L246.991 11.1487H245.575ZM246.991 11.1487V9.69346L247.255 9.42886H248.671V10.8841L248.406 11.1487H246.991ZM248.406 11.1487V9.69346L248.671 9.42886H250.086V10.8841L249.822 11.1487H248.406ZM249.822 11.1487V9.69346L250.086 9.42886H251.502V10.8841L251.237 11.1487H249.822ZM251.237 11.1487V9.69346L251.502 9.42886H252.918V10.8841L252.653 11.1487H251.237ZM252.653 11.1487V9.69346L252.918 9.42886H254.333V10.8841L254.068 11.1487H252.653ZM254.068 11.1487V9.69346L254.333 9.42886H255.749V10.8841L255.484 11.1487H254.068ZM255.484 11.1487V9.69346L255.749 9.42886H257.164V10.8841L256.9 11.1487H255.484ZM256.9 11.1487V9.69346L257.164 9.42886H258.58V10.8841L258.315 11.1487H256.9ZM258.315 11.1487V9.69346L258.58 9.42886H259.995V10.8841L259.731 11.1487H258.315ZM259.731 11.1487V9.69346L259.995 9.42886H261.411V10.8841L261.146 11.1487H259.731ZM261.146 11.1487V9.69346L261.411 9.42886H262.826V10.8841L262.562 11.1487H261.146ZM262.562 11.1487V9.69346L262.826 9.42886H264.242V10.8841L263.977 11.1487H262.562ZM263.977 11.1487V9.69346L264.242 9.42886H265.657V10.8841L265.393 11.1487H263.977ZM265.393 11.1487V9.69346L265.657 9.42886H267.073V10.8841L266.808 11.1487H265.393ZM266.808 11.1487V9.69346L267.073 9.42886H268.488V10.8841L268.224 11.1487H266.808ZM268.224 11.1487V9.69346L268.488 9.42886H268.621C269.454 9.42886 269.943 8.91293 269.943 8.03981V1.88822H271.531V8.03981C271.531 9.99773 270.446 11.1487 268.621 11.1487H268.224ZM273.383 11.1487V1.88822H274.971V11.1487H273.383ZM286.222 9.42886V10.8841L285.957 11.1487C284.886 11.1487 284.132 10.8047 283.695 10.0903H281.949C280.56 10.0903 279.528 9.30981 279.528 7.97366C279.528 6.63751 280.335 5.84375 281.883 5.26167L283.245 4.74573V3.74032H284.833V8.03981C284.833 8.99231 285.177 9.42886 286.09 9.42886H286.222ZM283.259 8.44991C283.245 8.31762 283.245 8.18533 283.245 8.03981V6.29355L282.28 6.58459C281.34 6.8624 280.917 7.23282 280.917 7.76199C280.917 8.19855 281.301 8.44991 281.949 8.44991H283.259ZM282.862 2.20573L282.068 2.99947L281.01 1.94115L282.068 0.882812L282.862 1.67655L283.656 0.882812L284.714 1.94115L283.656 2.99947L282.862 2.20573ZM290.793 9.42886V10.8841L290.528 11.1487C289.271 11.1487 288.504 10.646 288.16 9.58762C287.856 10.646 287.141 11.1487 285.964 11.1487V9.69346L286.229 9.42886H286.361C287.353 9.42886 287.816 8.99231 287.816 8.03981V6.51844H289.205V8.03981C289.205 8.99231 289.668 9.42886 290.66 9.42886H290.793ZM288.517 12.8685L289.311 12.0747L290.369 13.133L289.311 14.1914L288.517 13.3976L287.724 14.1914L286.665 13.133L287.724 12.0747L288.517 12.8685ZM290.528 11.1487V9.69346L290.793 9.42886H290.925C291.758 9.42886 292.248 8.91293 292.248 8.03981V1.88822H293.835V8.03981C293.835 9.99773 292.751 11.1487 290.925 11.1487H290.528ZM298.333 11.1487C296.521 11.1487 295.621 10.1697 295.621 8.03981V1.88822H297.209V8.03981C297.209 8.99231 297.553 9.42886 298.466 9.42886H298.598V10.8841L298.333 11.1487ZM298.333 11.1487V9.69346L298.598 9.42886H300.013V10.8841L299.749 11.1487H298.333ZM299.749 11.1487V9.69346L300.013 9.42886H301.429V10.8841L301.164 11.1487H299.749ZM301.164 11.1487V9.69346L301.429 9.42886H302.844V10.8841L302.58 11.1487H301.164ZM302.58 11.1487V9.69346L302.844 9.42886H304.26V10.8841L303.995 11.1487H302.58ZM303.995 11.1487V9.69346L304.26 9.42886H305.676V10.8841L305.411 11.1487H303.995ZM305.411 11.1487V9.69346L305.676 9.42886H307.091V10.8841L306.826 11.1487H305.411ZM306.826 11.1487V9.69346L307.091 9.42886H308.507V10.8841L308.242 11.1487H306.826ZM308.242 11.1487V9.69346L308.507 9.42886H309.922V10.8841L309.658 11.1487H308.242ZM309.658 11.1487V9.69346L309.922 9.42886H311.338V10.8841L311.073 11.1487H309.658ZM311.073 11.1487V9.69346L311.338 9.42886H312.753V10.8841L312.489 11.1487H311.073ZM312.489 11.1487V9.69346L312.753 9.42886H314.169V10.8841L313.904 11.1487H312.489ZM313.904 11.1487V9.69346L314.169 9.42886H315.584V10.8841L315.32 11.1487H313.904ZM315.32 11.1487V9.69346L315.584 9.42886H317V10.8841L316.735 11.1487H315.32ZM316.735 11.1487V9.69346L317 9.42886H318.415V10.8841L318.151 11.1487H316.735ZM318.151 11.1487V9.69346L318.415 9.42886H319.831V10.8841L319.566 11.1487H318.151ZM319.566 11.1487V9.69346L319.831 9.42886H321.246V10.8841L320.982 11.1487H319.566ZM320.982 11.1487V9.69346L321.246 9.42886H322.662V10.8841L322.397 11.1487H320.982ZM322.397 11.1487V9.69346L322.662 9.42886H324.077V10.8841L323.813 11.1487H322.397ZM323.813 11.1487V9.69346L324.077 9.42886H325.493V10.8841L325.228 11.1487H323.813ZM325.228 11.1487V9.69346L325.493 9.42886H326.908V10.8841L326.644 11.1487H325.228ZM326.644 11.1487V9.69346L326.908 9.42886H328.324V10.8841L328.059 11.1487H326.644ZM328.059 11.1487V9.69346L328.324 9.42886H329.739V10.8841L329.475 11.1487H328.059ZM329.475 11.1487V9.69346L329.739 9.42886H331.155V10.8841L330.89 11.1487H329.475ZM338.113 7.84136C338.987 9.12459 339.463 9.42886 340.349 9.42886V10.8841L340.085 11.1487C339.026 11.1487 338.219 10.7121 337.545 9.78605C337.359 10.8576 336.751 11.4662 335.825 11.4662C335.402 11.4662 334.938 11.3339 334.065 10.7518L333.351 10.2755C332.65 10.9105 331.922 11.1487 330.89 11.1487V9.69346L331.155 9.42886C332.253 9.42886 332.782 9.03199 333.761 7.47094L334.78 5.85698H336.764L338.113 7.84136ZM336.738 9.16428C336.738 8.82032 336.605 8.55573 336.235 8.02657L335.6 7.12699L334.886 8.27792C334.74 8.51605 334.595 8.74094 334.449 8.95261L334.753 9.15105C335.428 9.60085 335.798 9.74636 336.116 9.74636C336.473 9.74636 336.738 9.49501 336.738 9.16428ZM349.458 6.84917V8.56897H348.465C347.672 8.56897 347.301 8.64834 346.6 9.04522L344.616 10.1565C343.306 10.8841 342.631 11.1487 341.044 11.1487H340.091V9.69346L340.356 9.42886H341.044C342.499 9.42886 343.438 9.19075 344.417 8.66158L345.409 8.1324L344.272 7.70908C343.729 7.51064 343.134 7.3122 341.864 7.3122H340.885V5.5924H341.864C343.293 5.5924 343.848 5.68501 344.788 6.06865L346.005 6.55813C346.6 6.79625 347.076 6.84917 348.518 6.84917H349.458ZM343.425 13.133L344.483 12.0747L345.542 13.133L344.483 14.1914L343.425 13.133Z"
        fill="#1D1D1B" />
</svg>